<svg xmlns="http://www.w3.org/2000/svg" width="2563.841" height="500.532" viewBox="0 0 2563.841 500.532">
  <g id="Group_111" data-name="Group 111" transform="translate(-31.941 -24.816)" opacity="0.4">
    <path id="Path_93" data-name="Path 93" d="M252.589,27.785,119.423,277.049,34,152.417s82.913-48.128,67.838-124.632Z" transform="translate(2340.692 1.271)" fill="none" stroke="#06b41d" stroke-miterlimit="10" stroke-width="3"/>
    <path id="Path_94" data-name="Path 94" d="M57.75,27.79c0,54.073,44.924,97.919,100.325,97.919S258.4,81.863,258.4,27.79Z" transform="translate(2155.865 1.303)" fill="none" stroke="#06b41d" stroke-miterlimit="10" stroke-width="3"/>
    <path id="Path_95" data-name="Path 95" d="M231.885,300.186s-18.844-62.533,65.953-119.548L218.694,59.25,79.25,300.186Z" transform="translate(1954.368 201.289)" stroke="#06b41d" stroke-miterlimit="10" stroke-width="3"/>
    <path id="Path_96" data-name="Path 96" d="M176.432,27.785,89.75,152.417s92.335,44.928,75.375,124.632l150.751-17.781Z" transform="translate(1857.187 1.271)" fill="none" stroke="#06b41d" stroke-miterlimit="10" stroke-width="3"/>
    <ellipse id="Ellipse_6" data-name="Ellipse 6" cx="92.335" cy="90.121" rx="92.335" ry="90.121" transform="translate(1794.301 188.197)" fill="none" stroke="#06b41d" stroke-miterlimit="10" stroke-width="3"/>
    <path id="Path_97" data-name="Path 97" d="M213.838,300.186S257.179,211.9,146,187.994L228.913,59.25,377.779,300.186Z" transform="translate(1371.297 201.289)" fill="none" stroke="#06b41d" stroke-miterlimit="10" stroke-width="3"/>
    <path id="Path_98" data-name="Path 98" d="M368.357,27.822l-152.635-.037S219.491,133.848,146,152.417l73.491,106.85Z" transform="translate(1380.719 1.271)" fill="none" stroke="#06b41d" stroke-miterlimit="10" stroke-width="3"/>
    <path id="Path_99" data-name="Path 99" d="M391.262,281.338l-147.924-4.289C260.923,206.541,175.5,152.417,175.5,152.417L248.991,27.785,387.252,268.427l2.058,3.583,2.894,5.039L471.348,143.53c69.722,51.623,135.676,8.887,135.676,8.887" transform="translate(919.695 1.271)" fill="none" stroke="#06b41d" stroke-miterlimit="10" stroke-width="3"/>
    <path id="Path_100" data-name="Path 100" d="M287.038,301.957l-82.913-141s75.79-41.117,73.491-98.707L428.05,65.318S404.5,266.4,287.038,301.957Z" transform="translate(882.907 220.359)" fill="#00d11c" stroke="#06b41d" stroke-miterlimit="10" stroke-width="3"/>
    <path id="Path_101" data-name="Path 101" d="M223,27.785l76.634,126.78s91.7-35.43,134.417-2.148L507.542,27.785Z" transform="translate(661.144 1.271)" fill="none" stroke="#06b41d" stroke-miterlimit="10" stroke-width="3"/>
    <ellipse id="Ellipse_7" data-name="Ellipse 7" cx="90.45" cy="88.282" rx="90.45" ry="88.282" transform="translate(935.964 179.614)" fill="none" stroke="#06b41d" stroke-miterlimit="10" stroke-width="3"/>
    <path id="Path_102" data-name="Path 102" d="M281.305,310.134,414.471,60.87,499.894,185.5s-82.913,48.128-67.838,124.632Z" transform="translate(229.316 211.587)" fill="none" stroke="#06b41d" stroke-miterlimit="10" stroke-width="3"/>
    <path id="Path_103" data-name="Path 103" d="M460.584,179.356c0-54.073-44.924-97.919-100.325-97.919s-100.324,43.847-100.324,97.919Z" transform="translate(429.703 342.328)" fill="#00d11c" stroke="#06b41d" stroke-miterlimit="10" stroke-width="3"/>
    <path id="Path_104" data-name="Path 104" d="M412.121,313.735s19.673-65.689-68.863-125.581L425.892,60.638l145.6,253.1Z" transform="translate(-309.258 210.112)" fill="#00d11c" stroke="#06b41d" stroke-miterlimit="10" stroke-width="3"/>
    <path id="Path_105" data-name="Path 105" d="M476.854,27.585l90.5,130.922s-96.405,47.2-78.7,130.922L331.251,270.75Z" transform="translate(-214.617 0)" fill="none" stroke="#06b41d" stroke-miterlimit="10" stroke-width="3"/>
    <ellipse id="Ellipse_8" data-name="Ellipse 8" cx="96.409" cy="94.67" rx="96.409" ry="94.67" transform="translate(319.292 194.758)" fill="none" stroke="#06b41d" stroke-miterlimit="10" stroke-width="3"/>
    <path id="Path_106" data-name="Path 106" d="M858.619,154.561,740.531,288.156,627.053,113.97H517.759l-44.811,97.478L341.041,27.785l-90.458,129.45" transform="translate(102.157 1.272)" fill="none" stroke="#06b41d" stroke-miterlimit="10" stroke-width="3"/>
    <line id="Line_4" data-name="Line 4" x1="113.478" y2="107.663" transform="translate(729.21 289.428)" fill="none" stroke="#06b41d" stroke-miterlimit="10" stroke-width="3"/>
    <line id="Line_5" data-name="Line 5" x1="248.388" y2="2.127" transform="translate(262.234 521.721)" fill="none" stroke="#06b41d" stroke-miterlimit="10" stroke-width="3"/>
    <line id="Line_6" data-name="Line 6" x1="154.934" y2="86.185" transform="translate(729.21 29.057)" fill="none" stroke="#06b41d" stroke-miterlimit="10" stroke-width="3"/>
    <path id="Path_107" data-name="Path 107" d="M653.487,115.241,476.769,29.056,295.8,27.585" transform="translate(-33.571 0.001)" fill="none" stroke="#06b41d" stroke-miterlimit="10" stroke-width="3"/>
  </g>
</svg>
