<svg xmlns="http://www.w3.org/2000/svg" xmlns:xlink="http://www.w3.org/1999/xlink" width="153.746" height="76.812" viewBox="0 0 153.746 76.812">
  <defs>
    <linearGradient id="linear-gradient" x1="0.291" y1="1" x2="0.829" y2="1" gradientUnits="objectBoundingBox">
      <stop offset="0" stop-color="#000027"/>
      <stop offset="0.736" stop-color="#049518"/>
      <stop offset="1" stop-color="#00d11c"/>
    </linearGradient>
  </defs>
  <g id="Group_105" data-name="Group 105" transform="translate(3290.746 1455) rotate(90)">
    <path id="Path_87" data-name="Path 87" d="M163.874-375a12.461,12.461,0,0,0-6.271,6.979c-.436,1.418-.545,11.069-.436,30.753l.164,28.626,1.527,2.29a11.371,11.371,0,0,0,9.324,5.453,10.914,10.914,0,0,0,9-2.944c3.926-3.272,3.871-2.617,3.871-34.57,0-26.718-.109-28.79-1.036-30.807A12.36,12.36,0,0,0,163.874-375Z" transform="translate(-1612.128 3548.479)" fill="#000027"/>
    <path id="Path_88" data-name="Path 88" d="M204-191.282c0,.218,10.2,14.722,12,17.067.818,1.036,1.145.709,7.034-7.579,3.381-4.744,6.27-8.888,6.38-9.16.164-.327-4.253-.545-12.6-.545C209.78-191.5,204-191.391,204-191.282Z" transform="translate(-1633.443 3464.542)" fill="url(#linear-gradient)"/>
    <path id="Path_90" data-name="Path 90" d="M261.088-440.284a12.2,12.2,0,0,0-6.052,4.742c-.981,1.611-1.036,3.132-1.036,39.819,0,36.195.055,38.253,1.036,39.953,4.253,7.516,17.666,7.516,21.919,0,.981-1.7,1.036-3.758,1.036-39.819s-.055-38.119-1.036-39.819C274.938-438.987,270.9-441,265.887-441A20.063,20.063,0,0,0,261.088-440.284Z" transform="translate(-1682.457 3597.875)" fill="#049518"/>
    <path id="Path_91" data-name="Path 91" d="M261.088-440.128a12.926,12.926,0,0,0-6.052,5.78c-.981,1.963-1.036,3.817-1.036,48.528,0,44.112.055,46.62,1.036,48.692,4.253,9.16,17.666,9.16,21.919,0,.981-2.072,1.036-4.58,1.036-48.528s-.055-46.456-1.036-48.528A11.643,11.643,0,0,0,265.887-441,16.763,16.763,0,0,0,261.088-440.128Z" transform="translate(-1656.18 3578)" fill="#00d11c"/>
    <g id="Path_92" data-name="Path 92" transform="translate(-1450.405 3246.915)" fill="#000027">
      <path d="M 46.69014358520508 24.8099365234375 L 20.86220741271973 24.8099365234375 L 2.370736837387085 1.643734097480774 C 3.734434127807617 2.15066385269165 5.715660095214844 2.688596725463867 7.982574939727783 2.688596725463867 C 11.66693687438965 2.688596725463867 16.80673599243164 1.200677871704102 20.6848201751709 -5.754607677459717 C 22.67263793945313 -3.104262113571167 27.84964561462402 2.768146753311157 34.65959548950195 2.768146753311157 C 39.35696411132813 2.768146753311157 43.85611343383789 -0.0468510128557682 48.04339981079102 -5.602354049682617 C 50.51853942871094 1.4184730052948 57.05041885375977 2.498556852340698 60.82832336425781 2.498556852340698 C 61.62485504150391 2.498556852340698 62.31648635864258 2.451887369155884 62.85202026367188 2.397508859634399 L 46.69014358520508 24.8099365234375 Z" stroke="none"/>
      <path d="M 20.74499893188477 -4.858516693115234 C 16.79690551757813 1.749683380126953 11.68373489379883 3.188596725463867 7.982574462890625 3.188596725463867 C 6.420207977294922 3.188596725463867 4.987785339355469 2.940072059631348 3.788669586181641 2.618649482727051 L 21.10285186767578 24.3099365234375 L 46.43424987792969 24.3099365234375 L 61.81914901733398 2.974979400634766 C 61.51115798950195 2.989631652832031 61.1794548034668 2.998557090759277 60.82832336425781 2.998557090759277 C 57.06869125366211 2.998557090759277 50.6751708984375 1.961875915527344 47.89686584472656 -4.594808578491211 C 43.76335906982422 0.6246261596679688 39.31650161743164 3.268146514892578 34.65959548950195 3.268146514892578 C 28.10551452636719 3.268146514892578 23.04926681518555 -1.953502655029297 20.74499893188477 -4.858516693115234 M 20.62155532836914 -6.693113327026367 C 22.69953536987305 -3.724580764770508 27.97499084472656 2.268144607543945 34.65959167480469 2.268144607543945 C 38.78436279296875 2.268144607543945 43.44512176513672 -0.01256942749023438 48.22390747070313 -6.693113327026367 C 50.31704711914063 0.8074264526367188 56.87528228759766 1.998559951782227 60.82831954956055 1.998559951782227 C 62.66732025146484 1.998559951782227 63.94188690185547 1.740987777709961 63.94188690185547 1.740987777709961 L 46.94602584838867 25.3099365234375 L 20.62155532836914 25.3099365234375 L 0.6865234375 0.3352375030517578 C 0.6865234375 0.3352375030517578 3.873367309570313 2.188596725463867 7.982574462890625 2.188596725463867 C 12.02017974853516 2.188596725463867 16.94825744628906 0.4001369476318359 20.62155532836914 -6.693113327026367 Z" stroke="none" fill="#1f1f21"/>
    </g>
  </g>
</svg>
