<svg xmlns="http://www.w3.org/2000/svg" width="163.905" height="128.815" viewBox="0 0 163.905 128.815">
  <g id="Group_59" data-name="Group 59" transform="translate(-406.912 -905.9)">
    <g id="Group_40" data-name="Group 40" transform="translate(406.912 959.724)">
      <path id="Path_28" data-name="Path 28" d="M473.915,1133.243a1.748,1.748,0,0,0-1.3-.287l-64.256,11.374a1.749,1.749,0,0,0-.7,3.156l86.255,60.121a1.749,1.749,0,0,0,1.3.287l64.256-11.374a1.749,1.749,0,0,0,.7-3.156Z" transform="translate(-406.912 -1132.929)" fill="#049518" fill-rule="evenodd"/>
    </g>
    <g id="Group_41" data-name="Group 41" transform="translate(416.729 959.623)">
      <path id="Path_29" data-name="Path 29" d="M979.2,1179.125l-63.674,11.27-79.9-61.877,56.6-10.018Z" transform="translate(-835.626 -1118.5)" fill="rgba(0,0,0,0.07)" fill-rule="evenodd"/>
    </g>
    <g id="Group_42" data-name="Group 42" transform="translate(420.761 935.565)">
      <path id="Path_30" data-name="Path 30" d="M533.769,1030.813a1.749,1.749,0,0,0-1.568-.513l-65,11.5a1.749,1.749,0,0,0-.959,2.929l74.736,78.228a1.748,1.748,0,0,0,1.568.513l65-11.5a1.749,1.749,0,0,0,.959-2.929Z" transform="translate(-465.761 -1030.273)" fill="#00d11c" fill-rule="evenodd"/>
    </g>
    <g id="Group_43" data-name="Group 43" transform="translate(431.339 935.428)">
      <path id="Path_31" data-name="Path 31" d="M1030.3,1095.04,963,1106.955l-65.289-81.214,56.784-10.051Z" transform="translate(-897.708 -1015.69)" fill="rgba(0,0,1,0.07)" fill-rule="evenodd"/>
    </g>
    <g id="Group_44" data-name="Group 44" transform="translate(444.252 910.993)">
      <path id="Path_32" data-name="Path 32" d="M634.742,927.348a2.994,2.994,0,0,0-3.11-1.443l-64.608,11.436a1.749,1.749,0,0,0-1.207,2.6l55.057,94.681a1.748,1.748,0,0,0,1.816.842l65.465-11.588a1.749,1.749,0,0,0,1.207-2.6Z" transform="translate(-565.581 -925.86)" fill="#000027" fill-rule="evenodd"/>
    </g>
    <g id="Group_45" data-name="Group 45" transform="translate(445.455 910.992)">
      <path id="Path_33" data-name="Path 33" d="M957.7,923.4a1.737,1.737,0,0,1,.237-.059l64.608-11.437a3,3,0,0,1,3.111,1.443c7.013,12.062,46.987,80.807,54.619,93.926a1.763,1.763,0,0,1,.233.981,1.575,1.575,0,0,1-.238.059L1014.8,1019.9a1.743,1.743,0,0,1-1.817-.842c-5.563-9.566-47.248-81.249-55.057-94.679A1.749,1.749,0,0,1,957.7,923.4Z" transform="translate(-957.693 -911.853)" fill="#000027" fill-rule="evenodd"/>
    </g>
    <g id="Group_46" data-name="Group 46" transform="translate(446.282 906.418)">
      <path id="Path_34" data-name="Path 34" d="M643.368,907.906a2.994,2.994,0,0,0-3.11-1.443L575.65,917.9a1.749,1.749,0,0,0-1.207,2.6l55.057,94.681a1.748,1.748,0,0,0,1.816.842l65.465-11.588a1.749,1.749,0,0,0,1.207-2.6Z" transform="translate(-574.207 -906.418)" fill="#f5f5f5" stroke="#000027" stroke-width="1" fill-rule="evenodd"/>
    </g>
    <g id="Group_47" data-name="Group 47" transform="translate(457.301 918.358)">
      <path id="Path_35" data-name="Path 35" d="M649.525,957.471a1.06,1.06,0,0,0-1.1-.283L621.775,961.9a1.172,1.172,0,0,0-.6.288c-.142.14-.186.293-.117.411l13.212,22.72a.619.619,0,0,0,.643.166l27-4.78a1.169,1.169,0,0,0,.6-.288c.143-.139.186-.293.118-.411Z" transform="translate(-621.028 -957.157)" fill="#049518" fill-rule="evenodd"/>
    </g>
    <g id="Group_48" data-name="Group 48" transform="translate(497.636 941.371)">
      <path id="Path_36" data-name="Path 36" d="M820.921,1055.26a1.06,1.06,0,0,0-1.1-.283l-26.649,4.717a1.172,1.172,0,0,0-.6.288c-.142.139-.186.293-.117.411l13.212,22.72a.619.619,0,0,0,.643.166l27-4.78a1.173,1.173,0,0,0,.6-.288c.143-.139.186-.293.118-.411Z" transform="translate(-792.424 -1054.946)" fill="#00d11c" fill-rule="evenodd"/>
    </g>
    <g id="Group_49" data-name="Group 49" transform="translate(488.57 913.959)">
      <path id="Path_37" data-name="Path 37" d="M774.636,938.49c-.028-.048-.293-.036-.664.03l-19.387,3.432a3.726,3.726,0,0,0-.487.12c-.136.045-.21.085-.2.106l2.415,4.154c.016.028.171.021.388-.018l19.644-3.477a3.752,3.752,0,0,0,.487-.12c.136-.045.21-.085.2-.106Z" transform="translate(-753.899 -938.461)" fill="#000027" fill-rule="evenodd"/>
    </g>
    <g id="Group_50" data-name="Group 50" transform="translate(492.24 920.278)">
      <path id="Path_38" data-name="Path 38" d="M790.231,965.341c-.028-.048-.293-.036-.664.03L770.18,968.8a3.778,3.778,0,0,0-.487.12c-.136.045-.21.085-.2.106l2.415,4.154c.016.028.171.021.388-.018l19.644-3.477a3.72,3.72,0,0,0,.487-.12c.136-.045.21-.085.2-.106Z" transform="translate(-769.494 -965.312)" fill="#000027" fill-rule="evenodd"/>
    </g>
    <g id="Group_51" data-name="Group 51" transform="translate(496.18 926.899)">
      <path id="Path_39" data-name="Path 39" d="M806.972,993.477c-.028-.047-.293-.036-.664.03l-19.387,3.432a3.716,3.716,0,0,0-.487.12c-.136.045-.21.085-.2.106l2.415,4.154c.016.028.171.021.388-.018l19.644-3.477a3.737,3.737,0,0,0,.487-.12c.136-.045.21-.085.2-.106Z" transform="translate(-786.235 -993.448)" fill="#000027" fill-rule="evenodd"/>
    </g>
    <g id="Group_52" data-name="Group 52" transform="translate(499.85 933.217)">
      <path id="Path_40" data-name="Path 40" d="M822.568,1020.324c-.028-.048-.293-.036-.664.03l-19.387,3.432a3.715,3.715,0,0,0-.487.12c-.136.045-.21.085-.2.106l2.415,4.154c.016.028.171.021.388-.018l19.644-3.477a3.738,3.738,0,0,0,.487-.12c.136-.045.21-.085.2-.106Z" transform="translate(-801.831 -1020.295)" fill="#000027" fill-rule="evenodd"/>
    </g>
    <g id="Group_53" data-name="Group 53" transform="translate(472.446 947.659)">
      <path id="Path_41" data-name="Path 41" d="M706.12,1081.694c-.028-.048-.293-.036-.664.03l-19.387,3.432a3.73,3.73,0,0,0-.487.12c-.136.045-.21.085-.2.106l2.415,4.154c.016.028.171.021.388-.018l19.644-3.477a3.764,3.764,0,0,0,.487-.119c.136-.045.21-.085.2-.107Z" transform="translate(-685.383 -1081.665)" fill="#000027" fill-rule="evenodd"/>
    </g>
    <g id="Group_54" data-name="Group 54" transform="translate(476.116 953.978)">
      <path id="Path_42" data-name="Path 42" d="M721.716,1108.544c-.028-.047-.293-.036-.664.03l-19.387,3.432a3.7,3.7,0,0,0-.487.119c-.136.045-.21.085-.2.106l2.415,4.154c.016.028.171.021.388-.017l19.644-3.477a3.736,3.736,0,0,0,.487-.12c.136-.045.21-.085.2-.106Z" transform="translate(-700.979 -1108.515)" fill="#000027" fill-rule="evenodd"/>
    </g>
    <g id="Group_55" data-name="Group 55" transform="translate(480.056 960.601)">
      <path id="Path_43" data-name="Path 43" d="M738.457,1136.684c-.028-.048-.293-.036-.664.03l-19.387,3.432a3.72,3.72,0,0,0-.487.12c-.136.045-.21.085-.2.107l2.415,4.154c.016.028.171.021.388-.018l19.644-3.477a3.734,3.734,0,0,0,.487-.12c.136-.045.21-.085.2-.106Z" transform="translate(-717.72 -1136.655)" fill="#000027" fill-rule="evenodd"/>
    </g>
    <g id="Group_56" data-name="Group 56" transform="translate(483.726 966.919)">
      <path id="Path_44" data-name="Path 44" d="M754.052,1163.534c-.028-.048-.293-.035-.664.03L734,1167a3.739,3.739,0,0,0-.487.12c-.136.045-.21.085-.2.106l2.415,4.154c.016.028.171.021.388-.018l19.644-3.477a3.818,3.818,0,0,0,.487-.119c.136-.045.21-.085.2-.107Z" transform="translate(-733.315 -1163.505)" fill="#000027" fill-rule="evenodd"/>
    </g>
    <g id="Group_57" data-name="Group 57" transform="translate(500.139 995.57)">
      <path id="Path_45" data-name="Path 45" d="M865.705,1285.269a7.649,7.649,0,0,0-1.928.225l-58.556,10.365c-.51.09-1.07.206-1.5.31s-.677.183-.66.212l3.221,5.538a4.48,4.48,0,0,0,1.126-.131l59.333-10.5c.51-.09,1.07-.206,1.5-.31s.677-.183.66-.212Z" transform="translate(-803.06 -1285.249)" fill="#000027" fill-rule="evenodd"/>
    </g>
    <g id="Group_58" data-name="Group 58" transform="translate(449.251 913.815) rotate(-24.374)">
      <path id="Path_46" data-name="Path 46" d="M7.875.5a5.925,5.925,0,0,1,3.384,5.237c.024,6.587.005,13.172.007,19.759a4.246,4.246,0,0,1-5.189,3.943,4.207,4.207,0,0,1-3-3.9q-.062-9.853,0-19.706A2.371,2.371,0,0,1,5.309,3.575a2.35,2.35,0,0,1,2.35,2.291V20.818c-.035.44-.787.6-.835,0,0-5,.092-9.992,0-14.987A1.5,1.5,0,0,0,5.37,4.41,1.447,1.447,0,0,0,3.91,5.831c-.122,6.565-.041,13.136,0,19.7a3.348,3.348,0,0,0,3.263,3.224,4.018,4.018,0,0,0,1.175-.219,3.332,3.332,0,0,0,2.084-3c.04-6.608.058-13.216-.007-19.824A5.11,5.11,0,0,0,5.457.811,6.412,6.412,0,0,0,3.8,1.094,5.084,5.084,0,0,0,.823,3.988c-.012.03-.037.093-.037.093L0,3.875s.039-.1.059-.145A5.962,5.962,0,0,1,7.778.461Z" transform="translate(0 0)" fill="#000027"/>
    </g>
  </g>
</svg>
