<svg xmlns="http://www.w3.org/2000/svg" width="201.912" height="113.858" viewBox="0 0 201.912 113.858">
  <g id="Group_39" data-name="Group 39" transform="translate(-109.644 -185.582)">
    <g id="Group_16" data-name="Group 16" transform="translate(132.746 196.534)">
      <path id="Path_10" data-name="Path 10" d="M1057.688,2637.8a4.118,4.118,0,0,0-4.116-4.116H906.1a4.118,4.118,0,0,0-4.116,4.116v94.674a4.118,4.118,0,0,0,4.116,4.117h147.477a4.119,4.119,0,0,0,4.116-4.117Z" transform="translate(-901.979 -2633.688)" fill="#000027" fill-rule="evenodd"/>
    </g>
    <g id="Group_17" data-name="Group 17" transform="translate(140.879 206.584)">
      <rect id="Rectangle_6" data-name="Rectangle 6" width="139.442" height="86.105" transform="translate(0)" fill="#049518"/>
    </g>
    <g id="Group_18" data-name="Group 18" transform="translate(109.644 285.939)">
      <path id="Path_11" data-name="Path 11" d="M759.025,2326.889a1.813,1.813,0,0,1,1.638-1.029c10.709-.009,90.082-.009,90.082-.009a2.069,2.069,0,0,1,1.547.72,2.62,2.62,0,0,1,.64,1.74h0c0,6.1-4.4,11.041-9.816,11.041H660.836c-5.421,0-9.816-4.944-9.816-11.041h0a2.625,2.625,0,0,1,.64-1.74,2.067,2.067,0,0,1,1.546-.72h48.207a1.826,1.826,0,0,1,1.646,1.035,10.641,10.641,0,0,0,1.648,2.481c1.842.084,50.822.3,52.663,0A11.025,11.025,0,0,0,759.025,2326.889Z" transform="translate(-651.02 -2325.851)" fill="#000027" fill-rule="evenodd"/>
    </g>
    <g id="Group_19" data-name="Group 19" transform="translate(160.047 228.976)">
      <path id="Path_12" data-name="Path 12" d="M734.83,835.741a2.048,2.048,0,0,0-2.049-2.048H654.635a2.048,2.048,0,0,0-2.048,2.048v4.492H734.83Z" transform="translate(-652.587 -833.694)" fill="#00d11c" fill-rule="evenodd"/>
    </g>
    <g id="Group_20" data-name="Group 20" transform="translate(160.047 235.518)">
      <path id="Path_13" data-name="Path 13" d="M734.83-4854.666a2.048,2.048,0,0,1-2.049,2.048H654.635a2.048,2.048,0,0,1-2.048-2.048v-35.176H734.83Z" transform="translate(-652.587 4889.842)" fill="#fff" fill-rule="evenodd"/>
    </g>
    <g id="Group_21" data-name="Group 21" transform="translate(218.649 218.915)">
      <path id="Path_14" data-name="Path 14" d="M379.775,835.741a2.048,2.048,0,0,0-2.049-2.048H339.319a2.048,2.048,0,0,0-2.048,2.048v4.492h42.5Z" transform="translate(-337.27 -833.694)" fill="#00d11c" fill-rule="evenodd"/>
    </g>
    <g id="Group_22" data-name="Group 22" transform="translate(214.373 228.974)">
      <path id="Path_15" data-name="Path 15" d="M249.438-4901.8H223.569a2.049,2.049,0,0,1-2.048-2.048V-4939.4h27.917Z" transform="translate(-221.521 4939.398)" fill="rgba(0,0,0,0.07)" fill-rule="evenodd"/>
    </g>
    <g id="Group_23" data-name="Group 23" transform="translate(218.649 225.456)">
      <path id="Path_16" data-name="Path 16" d="M379.775-4854.666a2.046,2.046,0,0,1-.6,1.447,2.036,2.036,0,0,1-1.448.6H339.319a2.038,2.038,0,0,1-1.448-.6,2.046,2.046,0,0,1-.6-1.447v-35.176h42.5Z" transform="translate(-337.27 4889.842)" fill="#fff" fill-rule="evenodd"/>
    </g>
    <g id="Group_24" data-name="Group 24" transform="translate(208.5 199.449)">
      <circle id="Ellipse_3" data-name="Ellipse 3" cx="2.1" cy="2.1" r="2.1" fill="#049518"/>
    </g>
    <g id="Group_25" data-name="Group 25" transform="translate(132.745 196.533)">
      <path id="Path_17" data-name="Path 17" d="M898.714,2092.219a6.22,6.22,0,0,1,.038.687v13.012a1.551,1.551,0,0,1,1.242,1.518v6.508a1.551,1.551,0,0,1-1.242,1.521v1.731a1.554,1.554,0,0,1,1.242,1.521v11.938a1.548,1.548,0,0,1-1.242,1.518v42.464a6.238,6.238,0,0,1-6.237,6.238H861.3v-84.539a4.119,4.119,0,0,1,4.116-4.116Z" transform="translate(-861.297 -2092.219)" fill="rgba(0,0,0,0.07)" fill-rule="evenodd"/>
    </g>
    <g id="Group_26" data-name="Group 26" transform="translate(112.045 185.582)">
      <path id="Path_18" data-name="Path 18" d="M1332.5,1639.347a6.236,6.236,0,0,0-6.237-6.236h-40.581a6.239,6.239,0,0,0-6.237,6.236v81.733a6.239,6.239,0,0,0,6.237,6.236h40.581a6.235,6.235,0,0,0,6.237-6.236Z" transform="translate(-1279.439 -1633.11)" fill="#000027" fill-rule="evenodd"/>
    </g>
    <g id="Group_27" data-name="Group 27" transform="translate(150.259 204.799)">
      <path id="Path_19" data-name="Path 19" d="M403.947,168.118a1.551,1.551,0,0,0-1.551-1.551h-9.73a4.8,4.8,0,0,0-4.8,4.8h0a4.8,4.8,0,0,0,4.8,4.8h9.73a1.551,1.551,0,0,0,1.551-1.551Z" transform="translate(-387.863 -166.567)" fill="#00004d" fill-rule="evenodd"/>
    </g>
    <g id="Group_28" data-name="Group 28" transform="translate(150.259 216.079)">
      <path id="Path_20" data-name="Path 20" d="M403.947,262.27a1.551,1.551,0,0,0-1.551-1.551h-8.3a6.237,6.237,0,0,0-6.237,6.237v2.567a6.237,6.237,0,0,0,6.237,6.236h8.3a1.551,1.551,0,0,0,1.551-1.551Z" transform="translate(-387.863 -260.719)" fill="#00004d" fill-rule="evenodd"/>
    </g>
    <g id="Group_29" data-name="Group 29" transform="translate(135.177 191.431)">
      <path id="Path_21" data-name="Path 21" d="M267.546,44.705a1.253,1.253,0,0,0-1.253-1.253h-8.147a1.253,1.253,0,0,0-1.253,1.253h0a1.253,1.253,0,0,0,1.253,1.253h8.147a1.253,1.253,0,0,0,1.253-1.253Z" transform="translate(-256.893 -43.452)" fill="rgba(0,0,0,0.07)" fill-rule="evenodd"/>
    </g>
    <g id="Group_30" data-name="Group 30" transform="translate(114.667 198.742)">
      <rect id="Rectangle_7" data-name="Rectangle 7" width="47.811" height="67.887" transform="translate(0 0)" fill="#049518"/>
    </g>
    <g id="Group_31" data-name="Group 31" transform="translate(133.768 268.509)">
      <circle id="Ellipse_4" data-name="Ellipse 4" cx="4.804" cy="4.804" r="4.804" fill="rgba(0,0,0,0.07)"/>
    </g>
    <g id="Group_32" data-name="Group 32" transform="translate(131.313 191.43)">
      <circle id="Ellipse_5" data-name="Ellipse 5" cx="1.253" cy="1.253" r="1.253" fill="#049518"/>
    </g>
    <g id="Group_33" data-name="Group 33" transform="translate(117.904 202.084)">
      <path id="Path_22" data-name="Path 22" d="M1338.159,890.411a.364.364,0,0,0-.364-.366h-40.6a.366.366,0,0,0-.366.366v6.58a.366.366,0,0,0,.366.365h40.6a.364.364,0,0,0,.364-.365Z" transform="translate(-1296.824 -890.046)" fill="#fff" fill-rule="evenodd"/>
    </g>
    <g id="Group_34" data-name="Group 34" transform="translate(117.904 213.114)">
      <path id="Path_23" data-name="Path 23" d="M1338.159,4630.133a1.9,1.9,0,0,0-1.9-1.9h-37.533a1.9,1.9,0,0,0-1.9,1.9v34.215a1.9,1.9,0,0,0,1.9,1.9h37.533a1.9,1.9,0,0,0,1.9-1.9Z" transform="translate(-1296.824 -4628.232)" fill="rgba(0,0,0,0.07)" fill-rule="evenodd"/>
    </g>
    <g id="Group_35" data-name="Group 35" transform="translate(118.34 255.934)">
      <path id="Path_24" data-name="Path 24" d="M257.34,890.411a.365.365,0,0,0-.365-.366h-7.218a.366.366,0,0,0-.366.366v6.58a.365.365,0,0,0,.366.365h7.218a.365.365,0,0,0,.365-.365Z" transform="translate(-249.391 -890.046)" fill="#00004d" fill-rule="evenodd"/>
    </g>
    <g id="Group_36" data-name="Group 36" transform="translate(129.202 255.934)">
      <path id="Path_25" data-name="Path 25" d="M257.34,890.411a.365.365,0,0,0-.365-.366h-7.218a.366.366,0,0,0-.366.366v6.58a.365.365,0,0,0,.366.365h7.218a.365.365,0,0,0,.365-.365Z" transform="translate(-249.391 -890.046)" fill="#00004d" fill-rule="evenodd"/>
    </g>
    <g id="Group_37" data-name="Group 37" transform="translate(140.064 255.934)">
      <path id="Path_26" data-name="Path 26" d="M257.34,890.411a.365.365,0,0,0-.365-.366h-7.218a.366.366,0,0,0-.366.366v6.58a.365.365,0,0,0,.366.365h7.218a.365.365,0,0,0,.365-.365Z" transform="translate(-249.391 -890.046)" fill="#00004d" fill-rule="evenodd"/>
    </g>
    <g id="Group_38" data-name="Group 38" transform="translate(150.926 255.934)">
      <path id="Path_27" data-name="Path 27" d="M257.34,890.411a.365.365,0,0,0-.365-.366h-7.218a.366.366,0,0,0-.366.366v6.58a.365.365,0,0,0,.366.365h7.218a.365.365,0,0,0,.365-.365Z" transform="translate(-249.391 -890.046)" fill="#00004d" fill-rule="evenodd"/>
    </g>
  </g>
</svg>
