<svg xmlns="http://www.w3.org/2000/svg" width="122.719" height="59.807" viewBox="0 0 122.719 59.807">
  <g id="Logo_DM" transform="translate(1.439 -46.823)">
    <g id="Group_118" data-name="Group 118">
      <path id="Path_108" data-name="Path 108" d="M3.776-52.587a2.354,2.354,0,0,0,.96.137H6.725q.48,0,.926-.034a1.407,1.407,0,0,0,.789-.309l.069.069a.271.271,0,0,0,.171-.034.14.14,0,0,1,.1-.034,1.893,1.893,0,0,0,1.372.412.83.83,0,0,0,.48-.1.556.556,0,0,1,.343-.1,7.074,7.074,0,0,1,.926.069,6.7,6.7,0,0,0,.857.069q.343,0,.274-.412t.48-.412q.343,0,.309.348a.423.423,0,0,0,.24.475q5.145,0,10.873.034t10.873.034q.755,0,1.441-.069t1.372-.069a2.5,2.5,0,0,1,.412.034,3.486,3.486,0,0,0,.549.034,5.908,5.908,0,0,0,.652-.034,5.907,5.907,0,0,1,.652-.034,2.081,2.081,0,0,1,.617.069h.206l-.069.069h.274a1.05,1.05,0,0,0,.857.617q.583.069.309.069a1,1,0,0,1,.446.206q.309.206.652.412h.069q.137,0,.137.1t.069.1h.137a1.033,1.033,0,0,1,.652.377q.377.377.755.789t.652.72q.274.309.274.24a.719.719,0,0,0,.377.686q.377.206.377.343.343.137.309.274a.451.451,0,0,0,.1.343h.069a.061.061,0,0,1,.069.069.28.28,0,0,0,.069.206.279.279,0,0,1,.069.206v.069q.206.206.206.274v.137h.137a.2.2,0,0,0-.069.137q0,.137.069.069t.069.206q.274.137.274.686a1.206,1.206,0,0,0,.343.892.478.478,0,0,1-.034.206.478.478,0,0,0-.034.206.717.717,0,0,0,.617.72,6.544,6.544,0,0,0,1.475.206l1.749.069a4.7,4.7,0,0,1,1.441.24,1.012,1.012,0,0,1-.514.343,3.093,3.093,0,0,1-.823.171q-.446.034-.789.034h-.412q-.549,0-1.029-.034t-1.029-.034q-.274,0-.377,1.3t-.171,3.293q-.069,1.989-.069,4.322v4.322q0,1.989.034,3.327t.034,1.406a.843.843,0,0,0,.069.309.843.843,0,0,1,.069.309,1.545,1.545,0,0,1-.069.309,2.147,2.147,0,0,0-.069.583v1.372a6.6,6.6,0,0,1-.309,2.3q-.309.789-.583,1.338v.137a1.851,1.851,0,0,1-.583.995,12.978,12.978,0,0,1-1.269,1.235q-.686.583-1.2.995t-.377.274a6.419,6.419,0,0,1-.823.549v.069h-.069l-.412.274a1.6,1.6,0,0,1-.309.24.6.6,0,0,1-.24.1h-.206q-.069,0,0,.034t-.274.034q-.206,0-.206.137-.137-.069-.137-.137a.061.061,0,0,0-.069-.069,3.319,3.319,0,0,0-1.372.309,2.953,2.953,0,0,1-1.166.309,2.5,2.5,0,0,1-.412-.034,2.5,2.5,0,0,0-.412-.034q-1.783.137-3.67.137H31.488q-2.881,0-5.694-.034T20.1-12.047h-2.71q-1.338,0-2.641.069h-.96a.317.317,0,0,0-.343.206,3.355,3.355,0,0,0-.343-.206,1.177,1.177,0,0,0-.48-.069q-1.989,0-4.322.034t-4.527.034a.891.891,0,0,0-.274.755q-.343-.069-.309-.171a.312.312,0,0,0-.034-.24.6.6,0,0,0-.343-.24,4.1,4.1,0,0,0-1.166-.1q-.617,0-1.338-.069t-.789-.343q0-.48.755-.48H2.541a.845.845,0,0,0,.48-.137,5.433,5.433,0,0,0-.069-.892,5.433,5.433,0,0,1-.069-.892q0-.755.034-1.578t.034-1.578a7.761,7.761,0,0,0-.1-1.338q-.1-.583-.24-1.132a.871.871,0,0,0,.24-.549q.034-.343.034-.274a1.927,1.927,0,0,0-.034-.377q-.034-.171-.377-.171a1.127,1.127,0,0,0-.274.034,1.128,1.128,0,0,1-.274.034,2.014,2.014,0,0,1-.755-.137.486.486,0,0,1-.343-.48.537.537,0,0,0,.1-.137q.034-.069.171-.069h.137q.069-.137.343-.137h1.3q0-3.018-.034-6.379t-.034-6.448q0-.617.069-1.372t.069-1.646a7.832,7.832,0,0,0-.069-1.1,8.416,8.416,0,0,1-.069-1.166v-.549a2.255,2.255,0,0,1,.069-.549q-.069-.137-.343-.137H1.923a3.49,3.49,0,0,1-.686-.069,1.043,1.043,0,0,1-.549-.274.479.479,0,0,1,.549-.412H1.58q.274,0,.24-.069t.1-.069v.069a.061.061,0,0,0,.069.069.271.271,0,0,0,.171-.034.794.794,0,0,1,.171-.1.061.061,0,0,0-.069.069.2.2,0,0,0,.137.069.2.2,0,0,1,.069-.137.14.14,0,0,1,.1.034.14.14,0,0,0,.1.034q.206,0,.206-.137a.416.416,0,0,0-.1-.206.456.456,0,0,1-.1-.274,4.022,4.022,0,0,1,.1-.823,4.905,4.905,0,0,0,.1-1.029v-1.715q0-1.166.034-2.264t.1-2.2a1.52,1.52,0,0,0-.48-.069H.346a7.832,7.832,0,0,1-1.1-.069q-.48-.069-.48-.412,0-.206.412-.274A4.128,4.128,0,0,1-.2-52.382H.62q.755,0,1.578.034t.823-.417a.975.975,0,0,0-.034-.254.979.979,0,0,1-.034-.255q0-.382.171-.458a.245.245,0,0,0,.171-.228.667.667,0,0,1,.343.137.462.462,0,0,1,.206.412,2.156,2.156,0,0,1-.034.343,2.156,2.156,0,0,0-.034.343Zm4.527,1.3-.171.171a.329.329,0,0,0-.1.24H8.1a.5.5,0,0,1,.377-.309.363.363,0,0,0,.309-.309H8.714a.279.279,0,0,0-.206.069A.8.8,0,0,1,8.3-51.284Zm2.812-.206q-.892.892-1.372,1.3a4.2,4.2,0,0,1-.755.549,3.566,3.566,0,0,1-.377.171,1.009,1.009,0,0,0-.309.24q.892-.617,1.166-.789a3.118,3.118,0,0,0,.309-.206q.034-.034,0-.034a1.336,1.336,0,0,1,.309-.137,1.323,1.323,0,0,0,.686-.206,4.286,4.286,0,0,0,.583-.412,1.645,1.645,0,0,0,.343-.377q.1-.171.1-.1Zm2.812.686a.941.941,0,0,0,.549-.309q.206-.24.343-.377h-.652Q13.928-51.49,13.928-50.8Zm1.715-.069a.667.667,0,0,0-.343.137q-.206.137-.206.274a.061.061,0,0,0,.069.069,2.6,2.6,0,0,1,.823-.549,2.6,2.6,0,0,0,.823-.549,2.28,2.28,0,0,0-.72.1A.735.735,0,0,0,15.643-50.872Zm3.567-.617q-1.1.823-2.161,1.612T14.957-48.2q.343-.206.823-.48t.926-.514q.446-.24.755-.412l.309-.171v-.137q1.029-.549,1.921-.96a4.686,4.686,0,0,0,1.1-.617Zm2.332,1.029a2.181,2.181,0,0,0,1.372-.48,7.483,7.483,0,0,1,.617-.549H22.3a5.013,5.013,0,0,0-.617.034l-.274.034q0,.069.137.171a.361.361,0,0,1,.137.309A1.105,1.105,0,0,1,21.542-50.461Zm3.979-.549a.861.861,0,0,1,.343-.206.661.661,0,0,0,.343-.274h-.823a.467.467,0,0,1,.034.309Q25.383-51.01,25.521-51.01Zm2.538-.069a.686.686,0,0,1-.446.274.335.335,0,0,0-.309.343H27.1q-.96,0-1.235.48t-.48.549A6.813,6.813,0,0,1,24.114-48.3a1.445,1.445,0,0,1-.24.034l-.137-.069q-.137.137-.1.206t-.1.069a.2.2,0,0,0-.137-.069.2.2,0,0,0-.069.137q0,.069-.137.069H23.12l-.069.137.069-.069h.069q.755,0,.892-.446t.343-.24q0-.069.446-.24t.309-.24a2.351,2.351,0,0,0,1.338-.514q.72-.514.72-.652a.764.764,0,0,1,.343-.069q.206,0,.069-.137a1.871,1.871,0,0,0,1.132-.377q.514-.377.377-.377h.206q0-.274.206-.206t.206-.137h-.96A1.142,1.142,0,0,0,28.059-51.078Zm3.773-.274a5.834,5.834,0,0,1-1.475,1.372q-1.063.755-2.161,1.406t-1.886,1.063l-.789.412a1.3,1.3,0,0,0-.995.514q-.446.514-.583.514-.206,0-.171.137t-.1.137l-.137-.069q-.206.206-.206.274a.061.061,0,0,0,.069.069,4.776,4.776,0,0,1,1.818-1.166q.652-.137.652-.343V-47.1q.96-.617,1.441-.892t.686-.377l.206-.1.069-.069q1.852-.96,2.5-1.372t.789-.514q.137-.1.034-.034t.309.069a.4.4,0,0,0,.343-.206q.137-.206.137-.069V-50.8A4.54,4.54,0,0,1,33-51.01a1.87,1.87,0,0,0,.823-.48h-1.2Q31.831-51.49,31.831-51.353Zm4.6-.137a11.125,11.125,0,0,1-1.441,1.2q-.823.583-1.578,1.029t-1.338.755a4.879,4.879,0,0,0-.652.377,9.974,9.974,0,0,1-1.1.995,1.622,1.622,0,0,1-.514.274,1.476,1.476,0,0,1-.274.034q-.1,0-.377.274l-.069.069q-.069,0-.069-.034t-.069-.034q0,.137-.309.412a5.651,5.651,0,0,1-.617.48q-.309.206-.549.343t-.1.069a.847.847,0,0,0-.48.206,3,3,0,0,0-.48.446,4.715,4.715,0,0,0-.343.446q-.137.206-.137.137a.061.061,0,0,0,.069.069,5.994,5.994,0,0,1,1.715-1.338q.617-.24.549-.24a1.383,1.383,0,0,0,.549-.377q.206-.24.274-.24h.137a6.353,6.353,0,0,0,.995-.583,2.378,2.378,0,0,0,.412-.377.5.5,0,0,0,.1-.171q0-.034.137-.034h.137q.206-.137.892-.617a8.707,8.707,0,0,0,.823-.617.2.2,0,0,0,.137.069,1.258,1.258,0,0,0,.789-.412q.446-.412.377-.412h.137v-.137l.137.069q.069,0,.1-.1t.1-.1a.376.376,0,0,1,.24-.137q.1,0,.24-.206a.2.2,0,0,0,.137.069q.137,0,.069-.069t0-.069H35.4a.061.061,0,0,1-.069-.069l.069-.069.069.069a2.694,2.694,0,0,0,1.166-.549q.823-.549,1.235-.892Zm3.567.48a3.074,3.074,0,0,1-1.372.96,2.175,2.175,0,0,0-.412.069,1.324,1.324,0,0,0-.686.206,6.544,6.544,0,0,0-.652.446,5.305,5.305,0,0,0-.48.412l-.034.034a1.507,1.507,0,0,1-.446.274q-.309.137-.309.206a.061.061,0,0,0,.069.069,1.207,1.207,0,0,1,.48-.48,7.145,7.145,0,0,1,.72-.377q.377-.171.617-.274l.24-.1h.206a2.744,2.744,0,0,1,.446-.274l.755-.412q.377-.206.686-.412a1.132,1.132,0,0,0,.377-.343l-.069.069q-.069,0-.069-.034T39.994-51.01Zm-28.536,1.3a2.576,2.576,0,0,1-.274.24,2.576,2.576,0,0,0-.274.24l-.412.274a.2.2,0,0,0-.137-.069.526.526,0,0,1-.137.24,1.971,1.971,0,0,1-.309.309,3.4,3.4,0,0,0-.274.24q-.1.1-.1.034H9.332a5.592,5.592,0,0,0-.857.652,13.144,13.144,0,0,1-1.338.995l-.069.137a.061.061,0,0,0,.069.069.565.565,0,0,1,.24-.412,2.226,2.226,0,0,1,.549-.343,2.121,2.121,0,0,1,.549-.171q.24-.034.171-.034a.625.625,0,0,0,.343-.343l.137.069q.137,0,.343-.24t.206-.1v-.069a7.029,7.029,0,0,0,2.675-1.338,1.845,1.845,0,0,0,.617-1.2.4.4,0,0,0-.137-.274,5.172,5.172,0,0,1-.686.583Q11.8-49.981,11.458-49.706Zm29.016.206q-.755.412-1.441.789t-.686.446v.069q.892-.343,1.3-.48a3.222,3.222,0,0,0,.583-.24,1.594,1.594,0,0,0,.309-.24l.549-.549.72-.309a2.7,2.7,0,0,0,.583-.377,4.277,4.277,0,0,0-.995.377Q40.955-49.775,40.475-49.5ZM5.49-49.912a.631.631,0,0,0-.514.206,2.148,2.148,0,0,0-.274.412,3.05,3.05,0,0,1-.171.309q-.069.1-.137-.1H4.05q-.069,0-.1.274a5.342,5.342,0,0,0-.034.652q0,.377,0,.755t0,.583a.061.061,0,0,0,.069.069q.137,0,.377-.309a3.231,3.231,0,0,0,.309-.446.592.592,0,0,1-.48-.617A2.282,2.282,0,0,1,5.113-49.4a2.943,2.943,0,0,0,.857-.789L5.9-50.255l-.206.206a.2.2,0,0,1-.137.069A.061.061,0,0,0,5.49-49.912Zm37.385.892q-.137,0-.1.1t-.171.1a2.558,2.558,0,0,0-.926.171,2.942,2.942,0,0,0-.755.412,2.745,2.745,0,0,0-.446.412q-.137.171,0,.171-.549.343-1.063.652t-.446.309l-.137-.069a.2.2,0,0,0-.069.137q0,.069-.137.069h-.069l.069.137a1.26,1.26,0,0,0,.857-.446q.446-.446.309-.24a.745.745,0,0,1,.274-.137q.206-.069.137-.069h.206q-.069-.274.1-.137t.171-.206l.137.069a1.631,1.631,0,0,0,.652-.24q.446-.24.96-.549t.96-.617q.446-.309.652-.446a.4.4,0,0,0-.274-.069.721.721,0,0,0-.514.24Q43.013-49.02,42.875-49.02Zm1.852,1.029a.51.51,0,0,1,.377-.137q.24,0,.24-.274-.137.069-.412.171t-.274.24Zm-6.791.069a.2.2,0,0,0,.137-.069l.137-.137a.061.061,0,0,0-.069-.069.4.4,0,0,0-.274.137l-.137.137h.137Zm-26.821,1.3H10.91q-.137,0-.412.343a2.321,2.321,0,0,1-.617.549H9.743q-.137,0-.069.034t-.069.171a1.056,1.056,0,0,1-.412.171.22.22,0,0,0-.206.24.2.2,0,0,0,.137.069q0-.343.514-.446t.24-.24h.206a4.119,4.119,0,0,1,.995-.72q.583-.309.583-.583A.061.061,0,0,0,11.6-47.1l-.24.24Zm34.916-.343a.061.061,0,0,1-.069.069.2.2,0,0,0-.137-.069,2.715,2.715,0,0,1-.789.549q-.446.206-.446.274a.061.061,0,0,0,.069.069,8.633,8.633,0,0,0,.823-.274q.343-.137.617-.274a4.485,4.485,0,0,0,.48-.274q0-.274-.206-.274a.3.3,0,0,0-.24.137Q46.031-46.894,46.031-46.962Zm-34.641,2.2a9.034,9.034,0,0,1-1.441.96q-.343.137-.343.1t.1-.034q.1,0-.171.549a.4.4,0,0,1-.274.137.121.121,0,0,0-.137.137,6.582,6.582,0,0,0,1.715-.892,4.983,4.983,0,0,0,.926-.892,4.652,4.652,0,0,0,.412-.617q.1-.206.1,0,0-.069-.137-.069a.565.565,0,0,0-.412.24Q11.527-44.9,11.39-44.767Zm13.582-.412q0,.274-.377.48a6.739,6.739,0,0,1-.72.343q-.343.137-.583.206t.1.069a2.78,2.78,0,0,1-1.1.686q-.617.206-.617.48h1.269a6.248,6.248,0,0,0,.686-.034q.309-.034.309-.1a1.447,1.447,0,0,1,.652-1.269q.652-.446.652-.857l-.069-.069a.061.061,0,0,1-.069.069Zm9.329.823a.249.249,0,0,1,.309-.171q.24.034.24-.24a1.041,1.041,0,0,0-.377.1q-.24.1-.24.24A.061.061,0,0,0,34.3-44.356ZM17.906-42.915h1.3v-.137a.667.667,0,0,1,.24-.583q.24-.171.24-.309l-.137-.137a3.135,3.135,0,0,1-.823.583A3.135,3.135,0,0,0,17.906-42.915Zm-13.239,0a4.527,4.527,0,0,1,1.1-1.029,1.2,1.2,0,0,0-.617.343q-.274.274-.343.274a.2.2,0,0,0-.137-.069,1.305,1.305,0,0,1-.343.24,1.306,1.306,0,0,0-.343.24Zm42.05-.48a1.865,1.865,0,0,0,.514-.069q.24-.069.446-.137a2.244,2.244,0,0,1,.24.137.561.561,0,0,0,.309.069.609.609,0,0,1-.069-.274.22.22,0,0,0-.137-.206l-.137.137a.329.329,0,0,1-.24-.1.329.329,0,0,0-.24-.1.661.661,0,0,1-.343.274A.661.661,0,0,0,46.717-43.4Zm-17.355.48a5.907,5.907,0,0,1,.652.034,6.611,6.611,0,0,0,.72.034.4.4,0,0,0,.274-.137q-.274-.069-.274-.48a.3.3,0,0,1,.034-.137.478.478,0,0,0,.034-.206.061.061,0,0,0-.069-.069,1.449,1.449,0,0,1-.686.48A1.449,1.449,0,0,0,29.362-42.915Zm-14.2,0h.892a.554.554,0,0,1-.034-.343q.034-.206-.1-.206a.656.656,0,0,1-.377.274A.656.656,0,0,0,15.163-42.915Zm18.452-.274a2.548,2.548,0,0,1-.446.1.645.645,0,0,0-.377.171q.412,0,1.063.034t.652-.377V-43.4Q34.164-43.327,33.615-43.19Zm4.6-.206a.491.491,0,0,1-.48.274.534.534,0,0,0-.48.206,2.156,2.156,0,0,1,.343.034,2.5,2.5,0,0,0,.412.034.364.364,0,0,0,.412-.412.121.121,0,0,0-.137-.137Zm-25.655.48q.274,0,.274-.137t-.069-.137q0,.137-.069.137T12.556-42.915Zm1.509,1.235v19q1.166.069,2.332.069H18.73q3.5,0,6.791-.069t6.585-.069q.412,0,.926.034t1.063.034a2.381,2.381,0,0,0,1.338-.274,1.421,1.421,0,0,1,.857-.274,1.287,1.287,0,0,1,.755.24,2.457,2.457,0,0,0,1.3.24V-42.024H35.5q-2.092,0-4.8-.034t-5.625,0q-2.915.034-5.385.069t-4.047.1Q14.065-41.818,14.065-41.681Zm33.063,0q-.206.069-.652.274t-.926.446q-.48.24-.823.446t-.343.343a.061.061,0,0,0,.069.069A1.242,1.242,0,0,1,45-40.686a2.671,2.671,0,0,1,.72-.24q.377-.069.686-.1a.744.744,0,0,0,.377-.1q.206-.069.48-.171a1.4,1.4,0,0,1,.48-.1.3.3,0,0,1,.137.034.478.478,0,0,0,.206.034q.206,0,.206-.069a.28.28,0,0,0-.069-.206.279.279,0,0,1-.069-.206.28.28,0,0,1,.069-.206A2.057,2.057,0,0,0,47.128-41.681ZM11.8-40.24a9.09,9.09,0,0,1-.789.72q-.309.24-.549.412t-.549.412a9.091,9.091,0,0,0-.789.72,3.743,3.743,0,0,0-.274.309q-.137.171-.206.171a.2.2,0,0,0-.137-.069,2.576,2.576,0,0,0-.24.274.416.416,0,0,0-.1.206h.069a2.905,2.905,0,0,1,.857-.789q.583-.377,1.1-.652t.823-.446q.309-.171.1-.171a1.831,1.831,0,0,1,.549-.309,2.432,2.432,0,0,1,.48-.171h.206q.137-.069.309.24t.171-.034v-.892a1.128,1.128,0,0,1,.034-.274,1.128,1.128,0,0,0,.034-.274.465.465,0,0,0-.137-.343A4.778,4.778,0,0,1,11.8-40.24Zm36.013.48h.069a.28.28,0,0,1,.206.069.279.279,0,0,0,.206.069V-39.9a.121.121,0,0,0-.137-.137Q47.952-40.034,47.814-39.76Zm.48,1.1v-.343q0-.137-.069-.137a.4.4,0,0,0-.206.343Q48.02-38.662,48.295-38.662Zm-36.288.823q-1.784,1.372-2.332,1.852t-.549.617l.069.069q.755-.549,1.715-1.235a4.38,4.38,0,0,1,1.921-.823,2.836,2.836,0,0,1,.034-.377,3.166,3.166,0,0,0,.034-.446,1.105,1.105,0,0,0-.137-.48,1.364,1.364,0,0,1-.343.446Q12.213-38.045,12.007-37.839Zm35.67.206a1.522,1.522,0,0,1-.96,1.338,6.663,6.663,0,0,0-1.578,1.132q.755-.343,1.475-.755a4.7,4.7,0,0,1,1.681-.549q0-.274.034-.926t-.24-.652v.069a.162.162,0,0,1-.137.171A.607.607,0,0,0,47.677-37.633Zm-43.7.274q.274,0,.274-.206-.274,0-.274.137Zm8.575,1.784a28.6,28.6,0,0,0-2.469,2.3Q8.646-31.8,7.205-30.568q0,.069-.034.069t-.034.069v.069q.892-.686,1.3-.96t.549-.377a1.55,1.55,0,0,1,.206-.137,2.315,2.315,0,0,0,.343-.309l.069.069a.162.162,0,0,0,.171-.137.435.435,0,0,1,.1-.206q.137-.069.377-.171t.171-.1h.137a3.917,3.917,0,0,1,1.029-.72,2.74,2.74,0,0,1,1.235-.309q0-.069,0-.377t0-.652A5.907,5.907,0,0,0,12.8-35.4l-.034-.309Q12.693-35.713,12.556-35.575Zm-8.575.48v.412a.061.061,0,0,0,.069.069.289.289,0,0,1,.171-.24.6.6,0,0,0,.24-.24,1.154,1.154,0,0,0,.171-.274q.1-.206.1-.137a.061.061,0,0,0-.069-.069A1.876,1.876,0,0,1,3.981-35.1Zm43.7.412H47.54q-.069,0-.069.137t-.274.137l-.24.171q-.24.171-.48.377t-.48.377l-.24.171v.069a1.45,1.45,0,0,0,.686-.24q.412-.24.823-.514l.72-.48.309-.206v-.274a.121.121,0,0,0-.137-.137.277.277,0,0,0-.274.137A1.075,1.075,0,0,1,47.677-34.684Zm-7.751.274a.734.734,0,0,0,.48-.309q.274-.309.274-.24l-.069-.069a.38.38,0,0,1-.412.24Q39.926-34.821,39.926-34.409ZM4.05-32.351a1.774,1.774,0,0,1,.48-.446,1.038,1.038,0,0,0,.412-.514,4.208,4.208,0,0,1-.583-.034.645.645,0,0,1-.377-.171v.823A.543.543,0,0,0,4.05-32.351ZM47.677-32.9H47.54l-.069.069a.2.2,0,0,0-.069.137h-.137a.734.734,0,0,0-.48.309q-.274.309-.343.377h-.206q-.137,0-.343.309t-.343.309a.2.2,0,0,0-.137-.069q-.137.48-.343.48a.2.2,0,0,0-.137-.069,1.306,1.306,0,0,0-.24.343q-.1.206-.24.206a.2.2,0,0,0-.137-.069.861.861,0,0,0-.206.343q-.069.206-.206.206l-.137-.069-.274.274q-.206.206-.206.274a.061.061,0,0,0,.069.069q.755-1.1,1.372-1.166a1.955,1.955,0,0,0,.686-.137q.892-.48,1.886-.926a1.566,1.566,0,0,0,.995-1.543.532.532,0,0,0-.377.1ZM6.245-31.665q-.48.412-1.063.857a1.813,1.813,0,0,1-1.063.446H3.981v1.509q0,.206.069.206a7.845,7.845,0,0,1,.96-1.2q.617-.652,1.2-1.235t1.029-.995q.446-.412.446-.549a.061.061,0,0,0-.069-.069,3.606,3.606,0,0,1-.686.549A6.242,6.242,0,0,0,6.245-31.665Zm6.448-.48q-1.372,1.372-2.2,2.126t-1.338,1.2q-.514.446-.755.652a3,3,0,0,0-.446.48q-.343.343-.926.857t-.583.72h.069q1.509-1.1,2.024-1.543a2.684,2.684,0,0,0,.549-.549q.034-.1-.069,0t.171.1a.657.657,0,0,0,.274-.171q.206-.171.206-.1v-.137a2.94,2.94,0,0,0,1.029-.549q.274-.274.412-.274a8.88,8.88,0,0,1,1.715-.892q0-.137,0-.446t0-.652a5.014,5.014,0,0,0-.034-.617l-.034-.274Zm28.193,1.1a.22.22,0,0,1-.137.206,1.075,1.075,0,0,0-.274.206h-.137q-.069,0-.1.1t-.1.1h-.069a.061.061,0,0,0-.069.069v.274l.069.137a.562.562,0,0,0,.343-.206,4.478,4.478,0,0,0,.412-.48q.206-.274.343-.48t.137-.137v-.069a.312.312,0,0,1-.171.171A1.881,1.881,0,0,0,40.886-31.048Zm5.831,1.715q-.343.206-.343.274a.061.061,0,0,0,.069.069q.274-.206.755-.514a1.594,1.594,0,0,1,.686-.309,1.129,1.129,0,0,1,.343.069.559.559,0,0,0,.137-.412q0-.412-.274-.412a4.387,4.387,0,0,1-.652.652Q47.06-29.608,46.717-29.333Zm-38.963.069q-.755,0-.926.48t-.377.48q-.412.137-.412.343H5.9a1.6,1.6,0,0,1-.412.274,2.136,2.136,0,0,1-.892.274.422.422,0,0,1-.343-.171q-.137-.171-.206-.171t-.069.309q0,.309,0,.72t0,.789q0,.377,0,.446a.279.279,0,0,0,.069.206,11.743,11.743,0,0,1,1.063-1.338q.652-.72,1.3-1.338t1.1-1.029L7.96-29.4v-.069Zm4.527,1.1a13.567,13.567,0,0,0-1.338.995,10.857,10.857,0,0,0-.892.857q-.377.412-.72.755t-.823.755a.061.061,0,0,0-.069.069h.069a.061.061,0,0,1,.069-.069h.137a6.131,6.131,0,0,1,1.2-1.063,1.927,1.927,0,0,1,.377-.034H10.5q1.235-1.235,1.612-1.166a3.509,3.509,0,0,0,.514.069h.206v-1.578a.4.4,0,0,0-.274.137Zm34.5.686a4.143,4.143,0,0,0-1.029.96q-.412.549-.412.48h.069a10.856,10.856,0,0,1,1.235-.926,4.882,4.882,0,0,1,1.578-.652v-.069a.271.271,0,0,1,.034-.171.14.14,0,0,0,.034-.1q0-.069-.034-.034t-.034-.1l.069-.069a.787.787,0,0,0-.069-.24q-.069-.171-.137-.171a2.973,2.973,0,0,1-.617.583Q47.128-27.755,46.785-27.481Zm-5.762.96q-.274.137-.514.274a1.158,1.158,0,0,1-.583.137v.755a.543.543,0,0,0,.069.343,7.378,7.378,0,0,1,1.2-1.2q.789-.652.789-.789l-.069-.069A3.607,3.607,0,0,1,41.023-26.521Zm-28.33.892a1.528,1.528,0,0,1-.377.48q-.24.206-.514.412a2.611,2.611,0,0,1-.686.48,2.755,2.755,0,0,0-.583.412q-.309.274-.583.549l-.446.446q-.171.171-.171.1H9.4a5.987,5.987,0,0,0,1.406-.857,1.614,1.614,0,0,1,1.063-.446.912.912,0,0,1,.412.171.633.633,0,0,1,.274.583.4.4,0,0,1-.137.274.4.4,0,0,0-.137.274q0,.069.274.069.343,0,.343-.48a2.836,2.836,0,0,0-.034-.377,2.836,2.836,0,0,1-.034-.377v-.617q0-.343,0-.755t-.069-.412Zm34.847.48q-1.029.686-1.338.857a1.073,1.073,0,0,0-.343.24q-.034.069-.171.274a8.66,8.66,0,0,1-.823.892l-.206.206a1.082,1.082,0,0,0,.377.171,1.082,1.082,0,0,1,.377.171l.343-.171a1.306,1.306,0,0,0,.343-.24,2.249,2.249,0,0,0,.343-.274h.206l-.069-.069q0-.069.171-.069t.171-.206a.2.2,0,0,0,.137.069q.137,0,.069-.069t0-.069h.206q-.069-.069.274-.274a1.23,1.23,0,0,1,.617-.206q0-.343.034-1.063t-.1-.72l-.274.274-.206.206A.2.2,0,0,1,47.54-25.149ZM4.05-23.16q-.069,0-.069.137v.343a1.25,1.25,0,0,0,.926-.514q.446-.514.446-.446a.061.061,0,0,0-.069-.069,1.279,1.279,0,0,1-.549.309Q4.393-23.3,4.05-23.16Zm7.34,1.372a6.359,6.359,0,0,0-.823.617q-.48.412-.48.549a.061.061,0,0,0,.069.069,1.187,1.187,0,0,0,.96-.549,1.372,1.372,0,0,1,1.166-.549q.206.137.24.069t-.1-.171a1.169,1.169,0,0,0-.412-.171A.815.815,0,0,0,11.39-21.788Zm2.675.343q.137,0,.343-.343h-.24Q14.065-21.788,14.065-21.445Zm4.733-.343q-.686.686-1.372,1.269t-1.372,1.132a3.81,3.81,0,0,0,1.543-.24,1.706,1.706,0,0,0,.72-.549,1.384,1.384,0,0,0,.24-.549q.034-.24.24-.24a1.925,1.925,0,0,1,.755-.48q.412-.137.412-.343Zm2.881.617q.343-.137.617-.24a.739.739,0,0,0,.412-.377,5.014,5.014,0,0,0-.617.034Q21.816-21.719,21.679-21.17Zm3.224-.617v.069q0,.137-.069.171t-.069.171a.2.2,0,0,0,.069.137q-.892.48-1.269.72a3.32,3.32,0,0,0-.514.377q-.137.137-.137.171t-.069.034A.2.2,0,0,0,22.708-20a.491.491,0,0,1-.206.377,1.645,1.645,0,0,1-.48.274q-.274.1-.446.171t-.1.069a8.83,8.83,0,0,1-1.1.995.945.945,0,0,1-.377.171,1.475,1.475,0,0,0-.274.034,1.984,1.984,0,0,0-.652.514,1.124,1.124,0,0,1-.171.137,1.663,1.663,0,0,0-.24.206,2.248,2.248,0,0,0-.343.274.2.2,0,0,0-.137-.069,7.093,7.093,0,0,1-1.063.892,3.788,3.788,0,0,0-.926.892,1.768,1.768,0,0,0,1.166-.583q.617-.583.755-.72a.912.912,0,0,0,.549-.206q.274-.206.549-.446a3.444,3.444,0,0,0,.412-.412q.137-.171.069-.1a.2.2,0,0,0,.137.069q.137,0,.137-.171t.137-.171h.137l.617-.617a.2.2,0,0,0,.137.069q.137,0,.171-.171t.1-.171h.206q0-.274.171-.171t.171-.24q.343,0,.274-.034t.069-.171a.2.2,0,0,0,.137.069l.069-.069q0-.069.034-.069t.034-.137q.069,0,.069.034t.069.034q.069,0,.069-.1t.137-.1h.137a10.776,10.776,0,0,1,1.921-1.646,2.257,2.257,0,0,1,.857-.343q.24,0,.206.137t-.034-.206q0-.069-.377-.069Zm3.155,0a1.08,1.08,0,0,0-.274.412.643.643,0,0,1-.412.343l.069-.069h.137a.97.97,0,0,0,.652-.274q.309-.274.446-.412Zm3.567,0q-2.4,1.715-4.767,3.361a35.628,35.628,0,0,0-4.424,3.636.583.583,0,0,0,.48-.171.372.372,0,0,1,.274-.171h.137q-.069-.274.549-.514a1.883,1.883,0,0,0,.823-.514l.137.069.171-.1a3.071,3.071,0,0,0,.377-.274,4.825,4.825,0,0,1,.412-.309.776.776,0,0,0,.274-.274l.137.069a.922.922,0,0,0,.514-.24,3.941,3.941,0,0,0,.549-.514,2.844,2.844,0,0,1,.377-.377q.137-.1,0,.1a.931.931,0,0,0,.309-.137,5.649,5.649,0,0,0,.48-.309q.24-.171.412-.309t.1-.069q-.274.412.069.137t.892-.686q.549-.412,1.063-.789t.514-.24v-.069q.96-.549.96-.652t.274-.1h.069a1.918,1.918,0,0,0,.343-.24,1.058,1.058,0,0,0,.274-.309Zm3.224,1.029h-.137q-.137,0-.137.206h-.137a1.169,1.169,0,0,0-.617.377q-.412.377-.412.24,0,.069-.274.274t-.583.412a3.516,3.516,0,0,1-.549.309q-.24.1-.1-.034-.137,0-.274.206t-.274.206q-.069,0-.069-.034t-.069-.034q0,.137-.034.137t-.034.069l-.069.069q-.069,0-.069-.034t-.069-.034q-.069,0-.069.137a.121.121,0,0,1-.137.137.2.2,0,0,0-.137-.069,6.131,6.131,0,0,1-1.2,1.063.794.794,0,0,0-.377.24h-.137q-.137,0-.274.274t-.206.274l-.137-.069a1.594,1.594,0,0,0-.24.309,1.6,1.6,0,0,1-.24.309h-.137a2.1,2.1,0,0,0-.514.412q-.446.412-.446.48a.061.061,0,0,0,.069.069.061.061,0,0,1,.069-.069h.137a2.6,2.6,0,0,0,1.1-.171.947.947,0,0,0,.446-.377.854.854,0,0,0,.1-.377q0-.171.069-.171h.206v-.137l.069-.069h.206a3.129,3.129,0,0,0,.926-.755,3.444,3.444,0,0,1,.652-.617h.206q.343-.343.892-.857t.686-.514h.206a7.376,7.376,0,0,1,1.818-1.441,4.16,4.16,0,0,0,.857-.48l.069.069q.206,0,.206-.274a.2.2,0,0,0,.137.069q.137,0,.069-.069t.206-.069a.061.061,0,0,1-.069-.069q.069-.137.446-.24t.377-.24q0-.069-.137-.069Zm8.78-1.029a4.612,4.612,0,0,0-.617.583q-.343.377-.686.72t-.583.617l-.24.274h.069q0-.206.309-.446a6.543,6.543,0,0,1,.652-.446,3.007,3.007,0,0,1,.549-.274h0a2.383,2.383,0,0,1,.755-.48,1.064,1.064,0,0,0,.617-.549ZM42.944-17.6a.121.121,0,0,1-.137.137l-.069.069q0,.069.137.069a.976.976,0,0,0,.171-.206l.1-.206.137.069a1,1,0,0,0,.446-.206q.309-.206.617-.446a3.128,3.128,0,0,0,.48-.446q.171-.206.034-.206h.206q0-.274.412-.514t.857-.48a6.8,6.8,0,0,0,.857-.549.946.946,0,0,0,.412-.789.2.2,0,0,1-.069-.137q-1.166.96-2.3,1.921T42.944-17.6Zm-5.419-2.675q0,.069-.034.069t-.034.069v.069a.86.86,0,0,0,.652-.377q.309-.377.309-.24v-.069a.449.449,0,0,0-.446.206A.587.587,0,0,1,37.525-20.278Zm-25.861.755q.343,0,.377-.069t.171-.069h.274a1.6,1.6,0,0,0,.274-.412,1.053,1.053,0,0,0,.137-.412q0-.069-.137-.206A5.216,5.216,0,0,1,11.664-19.524Zm-7.683-.137q.343,0,.343-.274,0-.137-.069-.137,0,.206-.137.171T3.981-19.661Zm33.338,1.646a11.145,11.145,0,0,1-2.161,1.749A8.079,8.079,0,0,0,33.2-14.585a2.346,2.346,0,0,0,.995-.206,3.867,3.867,0,0,0,.755-.446,3.128,3.128,0,0,0,.48-.446q.171-.206.1-.137a2.975,2.975,0,0,1,.309-.24q.24-.171.583-.377a4.235,4.235,0,0,1,.755-.48h.137a8.036,8.036,0,0,0,.96-1.1,6.489,6.489,0,0,0,.377-.617,1.338,1.338,0,0,1,.137-.24.456.456,0,0,1,.24-.034.2.2,0,0,0-.137-.069,1.578,1.578,0,0,0-.72.412A3.678,3.678,0,0,1,37.319-18.015Zm8.712.617q0-.137.274-.1t.274-.446a.061.061,0,0,0-.069-.069,2.248,2.248,0,0,1-.343.274q-.206.137-.206.274A.061.061,0,0,0,46.031-17.4Zm-42.05-.137v.48q0,.137.069.137l.446-.446q.309-.309.309-.377l-.069-.069a.614.614,0,0,1-.343.171A2.708,2.708,0,0,0,3.981-17.535Zm7.271.617a2.514,2.514,0,0,0,.446-.206q.24-.137.24-.274,0-.069-.034-.069t-.034-.069a.436.436,0,0,1-.274.343A.661.661,0,0,0,11.253-16.917Zm27.987.892-.274.274q-.137.137-.137.206H38.9a1.012,1.012,0,0,1,.514-.343q.377-.137.377-.412l-.069-.137q0,.137-.171.206A.914.914,0,0,0,39.24-16.025ZM3.913-14.654a3.854,3.854,0,0,1-.069.755.853.853,0,0,0,.034.549.708.708,0,0,0,.48.309,5.422,5.422,0,0,0,1.269.1q.343,0,.343-.274t-.137-.274a1.63,1.63,0,0,0-.446.069,1.865,1.865,0,0,1-.514.069q0-.069-.24-.24a.591.591,0,0,1-.24-.514.742.742,0,0,1,.206-.549A.562.562,0,0,0,4.8-15a.061.061,0,0,0-.069-.069.525.525,0,0,1-.377.24A1.067,1.067,0,0,0,3.913-14.654Zm20.236.48a10.089,10.089,0,0,1-1.235.686,6.028,6.028,0,0,0-.892.48h5.831a.456.456,0,0,0-.1-.274.556.556,0,0,1-.1-.343v-.137q-.343.137-.892.377a2.457,2.457,0,0,1-.96.24q-.755,0-.892-.309a1.587,1.587,0,0,1-.137-.652.764.764,0,0,1,.069-.343.121.121,0,0,0-.137-.137.412.412,0,0,1-.274.274A.745.745,0,0,0,24.149-14.173Zm-6.036,1.166q.343,0,.823.034t.823.034a.465.465,0,0,0,.343-.137q-.206-.137-.206-.617a.742.742,0,0,1,.171-.377.742.742,0,0,0,.171-.377H20.17a.912.912,0,0,0-.412.171,4.414,4.414,0,0,0-.583.446q-.309.274-.617.514A3.231,3.231,0,0,1,18.112-13.007Zm12.485-.96q0,.274-.686.583t-.686.377a5.292,5.292,0,0,1,.583.034,5.907,5.907,0,0,0,.652.034,1.128,1.128,0,0,0,.274-.034,1.128,1.128,0,0,1,.274-.034.271.271,0,0,1,.171.034.271.271,0,0,0,.171.034l.137-.137a.806.806,0,0,1-.343-.755.478.478,0,0,1,.034-.206.3.3,0,0,0,.034-.137q0-.069-.137-.069a.2.2,0,0,0-.137.069A1.588,1.588,0,0,1,30.6-13.968Zm-22.843.96h.892v-.069a.478.478,0,0,1,.034-.206.3.3,0,0,0,.034-.137q0-.137-.206-.137a.838.838,0,0,1-.377.309A1.192,1.192,0,0,0,7.754-13.007Zm25.449,0h1.1a.554.554,0,0,1-.034-.343q.034-.206-.1-.206a.686.686,0,0,1-.446.274A1.024,1.024,0,0,0,33.2-13.007Zm-22.294,0H11.8a.543.543,0,0,0,.343-.069.182.182,0,0,1-.206-.206q0-.206-.274-.206a.462.462,0,0,1-.412.206A.324.324,0,0,0,10.91-13.007Zm4.733,0h.617a.4.4,0,0,0,.274-.069q-.206,0-.137-.206t-.137-.206h-.069q0,.274-.24.274A.291.291,0,0,0,15.643-13.007Zm22.294-.48a1.931,1.931,0,0,0-1.166.617h1.372a.419.419,0,0,0-.1-.309A.419.419,0,0,1,37.937-13.487ZM78.751-46.414a.279.279,0,0,0,.069-.206.615.615,0,0,0-.1-.309.72.72,0,0,1-.1-.377.332.332,0,0,1,.309.24l.206.48a2.153,2.153,0,0,1,.137.412q.034.171.034-.034.48,1.029.789,1.612a6.818,6.818,0,0,1,.446.995q.137.412.24.789t.309.995a24.893,24.893,0,0,0,.755,2.4l.823,2.2q-.274-.274-.274-.412-.069,0-.069.137a1.963,1.963,0,0,0,.343,1.029l.412.686a2.978,2.978,0,0,0,.206.926,13.03,13.03,0,0,0,.514,1.235q.309.652.617,1.235t.446.857a9.069,9.069,0,0,1,.377,1.1q.1.412.171.652t.137.446a1.665,1.665,0,0,0,.412.549q.412,1.166.583,1.612t.206.583a.939.939,0,0,1,.034.206,1.91,1.91,0,0,0,.137.412l.206.206a2.244,2.244,0,0,0,.137.24.423.423,0,0,1,.069.24q.755-.137.96-.171t.617-.926a29.336,29.336,0,0,0,1.166-3.155q.48-1.578.823-2.915t.583-2.367a5.939,5.939,0,0,1,.514-1.509,4.356,4.356,0,0,1,.206-1.063,14.539,14.539,0,0,1,.48-1.406q.274-.686.446-1.166t.1-.412a1.61,1.61,0,0,0,.343-.549,4.239,4.239,0,0,0,.206-.652,2.376,2.376,0,0,0,.069-.48v-.034l.274-.686.24-.48q.1-.206.1-.137a.061.061,0,0,1-.069-.069q0,.069.1-.343t.274-.96q.171-.549.412-1.2t.446-1.132q0-.343.137-.412t.137-.137v-.137a1.058,1.058,0,0,0,.309-.274.657.657,0,0,0,.171-.274v-.137a10.236,10.236,0,0,1,1.3-1.063q.823-.583,1.612-1.1t1.338-.823q.549-.309.48-.309a4.052,4.052,0,0,0,.755-.24,2.483,2.483,0,0,1,.96-.171.559.559,0,0,0-.412-.137,2.156,2.156,0,0,0-.343.034,2.156,2.156,0,0,1-.343.034,11.735,11.735,0,0,0-1.406-.069q-.857,0-1.749-.069a2.156,2.156,0,0,0-.343.034,2.5,2.5,0,0,1-.412.034q-.274,0-.652-.034a.387.387,0,0,1-.377-.446.475.475,0,0,1,.309-.514,2.539,2.539,0,0,1,.789-.1h7.889a2.014,2.014,0,0,0,1.063-.206,2.236,2.236,0,0,0,.48-.412,1.285,1.285,0,0,0,.24-.412.317.317,0,0,1,.343-.206q.48,0,.446.446a.8.8,0,0,0,.171.652h.069l.069.069a.061.061,0,0,0,.069.069.11.11,0,0,0,.1-.069.11.11,0,0,1,.1-.069.11.11,0,0,1,.1.069.11.11,0,0,0,.1.069l.069-.137a.2.2,0,0,0,.137.069l.069.069a.061.061,0,0,0,.069-.069.061.061,0,0,1,.069-.069q.069,0,.069.034t.069.034q.755,0,1.578-.069t1.715-.069q1.3,0,2.607.034t2.469.171h.686a5.219,5.219,0,0,1,1.132.171q.72.171.72.514a8.887,8.887,0,0,1-3.43.514q-2.058-.034-3.91-.034a.061.061,0,0,0-.069.069q0,.137.446.24a1.082,1.082,0,0,1,.652.377.85.85,0,0,1-.549.892,1.533,1.533,0,0,0-.823.686,3.789,3.789,0,0,1,1.372-.857q.823-.309.686-.309a1.856,1.856,0,0,1,.686.24q.48.24.48.514a.788.788,0,0,1-.24.48,3.376,3.376,0,0,1-.514.48,3.269,3.269,0,0,1-.48.309l-.069.034H114.7q-.069,0-.171.137a1.8,1.8,0,0,0-.171.274l1.1-.686a9.4,9.4,0,0,1,1.166-.617,1.827,1.827,0,0,0,.412.617.853.853,0,0,1,.274.617.633.633,0,0,1-.446.686q-.446.137-.309.137a.279.279,0,0,0-.309.274q-.034.274-.24.274l-.137-.069a.8.8,0,0,1-.137.206.8.8,0,0,0-.137.206q.48-.343.96-.652a4.866,4.866,0,0,1,1.1-.514,11.416,11.416,0,0,1,.377,1.235q.172.686.309,1.406t.206,1.372a10.578,10.578,0,0,1,.069,1.063v1.029a3.712,3.712,0,0,0,.206,1.3,4.183,4.183,0,0,1,.206,1.441q0,1.1-.034,2.2t-.034,2.264q0,2.469.069,5.728t.069,6.208q0,.823-.034,1.681t-.034,1.749q0,.549.034,1.063t.034,1.063q0,.96-.034,1.818t-.034,1.818q0,.549.377.686a2.5,2.5,0,0,0,.857.137h.857q.377,0,.377.274,0,.069-.309.137t-.72.137q-.412.069-.823.1t-.549.034a2.255,2.255,0,0,0-.069.549v3.636q0,.549-.069,1.372a1.739,1.739,0,0,1-.549,1.235q-.274-.069-.412-.686a11.274,11.274,0,0,1-.206-1.612q-.069-.995-.069-2.161v-2.264q-2.058,0-3.841.069t-3.841.069h-1.372q-.137.069-.137.412v.274q0,.755-.069,1.955a5.534,5.534,0,0,1-.412,1.955q-.343-.069-.48-.583a3.583,3.583,0,0,1-.137-.652.478.478,0,0,1,.034-.206.3.3,0,0,0,.034-.137,3.038,3.038,0,0,1-.171-.926q-.034-.583-.034-1.2a2.5,2.5,0,0,1,.034-.412,2.5,2.5,0,0,0,.034-.412,2.589,2.589,0,0,0-.823-.137,3.643,3.643,0,0,0-.514.034,3.643,3.643,0,0,1-.514.034,2.59,2.59,0,0,1-.823-.137,1.174,1.174,0,0,1,.549-.892,1.966,1.966,0,0,1,.892-.206h.823a.3.3,0,0,0,.343-.343V-26.041a10.471,10.471,0,0,0-.206-2.058,7.029,7.029,0,0,0,.274-2.264V-41.955q.069-.274-.274.72t-.823,2.332q-.48,1.338-.857,2.469l-.377,1.132a2.262,2.262,0,0,0-.137.377,1.583,1.583,0,0,1-.206.446v.137q0,.069-.446,1.3t-.926,3.018q-.069.343-.137.617a4.867,4.867,0,0,1-.206.617l-.274.686a4.857,4.857,0,0,1-.137.583q-.137.514-.309,1.063t-.343,1.029a3.441,3.441,0,0,0-.171.549q-.069-.069-.171.274t-.24.686v.274a.333.333,0,0,1-.069.171,2.242,2.242,0,0,0-.137.24,5.337,5.337,0,0,1-.412,1.509q-.412,1.1-.857,2.229T98.987-17.4a6.06,6.06,0,0,0-.412,1.1,2.939,2.939,0,0,1-.206,1.029,3.107,3.107,0,0,0-.206,1.1.622.622,0,0,0,.377.412q.24.069.24.206v.206q0,.137.755.1t1.029-.034q-.137,1.1-.652,1.166a9.839,9.839,0,0,1-1.269.069h-.137q-.137,0-.206.343a.382.382,0,0,1-.412.343.658.658,0,0,1-.206-.48v-.206a1.52,1.52,0,0,1-.48.069,2.954,2.954,0,0,1-.48-.034,2.5,2.5,0,0,0-.412-.034,1.236,1.236,0,0,0-.549.1,3.992,3.992,0,0,1-.514.206,4.666,4.666,0,0,1-.755.171,8.9,8.9,0,0,1-1.269.069q0-.137-.171-.171t-.171-.171a.14.14,0,0,1,.034-.1.14.14,0,0,0,.034-.1H88.286a41.3,41.3,0,0,0-.069,4.15,19.647,19.647,0,0,1-.274,4.081q-.206-.069-.274-.892t-.1-1.989q-.034-1.166-.034-2.572v-2.71a.4.4,0,0,0-.274-.137,1.128,1.128,0,0,0-.274.034,1.128,1.128,0,0,1-.274.034h-5.9q0,.069.034.069t.034.069a.279.279,0,0,0,.069.206.271.271,0,0,0,.034.171.14.14,0,0,1,.034.1q0,.617-.48.617H80.4a.526.526,0,0,1,.1.446.851.851,0,0,0,.034.446,1.337,1.337,0,0,1-.652-.446,6.545,6.545,0,0,1-.446-.652.279.279,0,0,1-.206.069q-.137,0-.412-.412a6.71,6.71,0,0,1-.412-.686q-1.372,0-2.058-.069t-1.989-.069a.953.953,0,0,1,.617-.789,4.912,4.912,0,0,1,1.166-.343,4.706,4.706,0,0,1,1.1-.069q.48.034.48-.034a6.436,6.436,0,0,0-.343-2.229q-.343-.926-.343-.583a4.017,4.017,0,0,0-.617-2.332,4.482,4.482,0,0,0-.617-.823A1,1,0,0,1,75.493-20a.87.87,0,0,0-.24-.549v-.137A2.5,2.5,0,0,0,74.67-22.3a2.1,2.1,0,0,1-.583-1.132q-.137-.343-.446-1.063a3.151,3.151,0,0,1-.309-.995,1.688,1.688,0,0,1-.274-.686,10.107,10.107,0,0,0-.343-1.1,16.608,16.608,0,0,1-.857-1.681q-.377-.857-.617-1.578t-.343-1.1q-.1-.377.034-.171a1.618,1.618,0,0,0-.206-.686q-.206-.412-.446-.823t-.446-.755l-.206-.343a.2.2,0,0,1-.069-.137.615.615,0,0,1,.1-.309.615.615,0,0,0,.1-.309,3.322,3.322,0,0,1-.686-.926q-.206-.446-.206-.377a1.128,1.128,0,0,1,.034-.274,1.128,1.128,0,0,0,.034-.274v-.137a2.726,2.726,0,0,0-.343-.412,3.743,3.743,0,0,0-.309-.274.861.861,0,0,1-.24-.274q0-.617.206-.686a2.663,2.663,0,0,0-.137-.343.763.763,0,0,1-.069-.343q-.069,0-.069.274v.48q-.069,1.578-.069,3.258v13.651q0,2.3.034,4.184t.1,3.121q.069,1.235.206,1.235H68.8q.137,0,.137.48v.617a3.166,3.166,0,0,1-.446-.034.765.765,0,0,0-.514.137,1.206,1.206,0,0,0-.446.617,4.217,4.217,0,0,0-.171,1.406v1.1A4.545,4.545,0,0,1,67.3-8q-.206.069-.24.446a.843.843,0,0,1-.171.514A1.493,1.493,0,0,1,66.4-7.9a7.205,7.205,0,0,1-.171-1.3q-.034-.72,0-1.475t.034-1.372q-.069-.137-.48-.137H58.824a7.028,7.028,0,0,1-.995-.069,5.294,5.294,0,0,0-.309,1.441q-.1.96-.171,1.509-.137-.069-.24-.514t-.206-.995a9.1,9.1,0,0,0-.24-.995q-.137-.446-.412-.446h-.96a2.147,2.147,0,0,1-.583-.069.613.613,0,0,1-.377-.343q0-.206.309-.309a3.1,3.1,0,0,1,.72-.137q.412-.034.789-.034h.583q0-4.733.034-9.672t.034-9.672v-.892a5,5,0,0,0-.069-.823v-.274a.593.593,0,0,0-.206-.412,7.646,7.646,0,0,0,.274-2.744q-.069-1.784-.069-3.087,0-.823-.034-1.646t-.034-1.646a9.017,9.017,0,0,1,.206-2.126q.137-.48.274-.892a2.451,2.451,0,0,1,.892-1.578.2.2,0,0,1-.069-.137,1.064,1.064,0,0,1,.343-.652q.343-.377.72-.72t.652-.583q.274-.24.206-.24h.206a.525.525,0,0,1,.24-.446,2.227,2.227,0,0,1,.514-.274,2.469,2.469,0,0,1,.514-.137q.24-.034.171-.034a1.91,1.91,0,0,0,.412-.137.782.782,0,0,0,.412-.274q-.069-.137-.823-.137H60.093a4.421,4.421,0,0,0-.549.034,4.419,4.419,0,0,1-.549.034,2.047,2.047,0,0,1-.652-.1.425.425,0,0,1-.309-.446q0-.48,1.338-.549t2.95-.034q1.612.034,2.95-.034T66.61-54.1a1.218,1.218,0,0,0-.137-.549,1.361,1.361,0,0,1-.137-.617q0-.343.48-.617a.914.914,0,0,0,.309.206q.171.069.171.343v.206q0,.069.343.274t.206.206h.069v1.1q.686,0,1.338.034t1.338.034q1.921,0,3.841-.069t3.773-.069q.892,0,1.784.034a11.752,11.752,0,0,1,1.646.171h.686a6.65,6.65,0,0,1,1.543.171q.72.171,1.406.309a1.249,1.249,0,0,1-.652.206q-.514.069-.514.206a4.484,4.484,0,0,1-.583.137,4.03,4.03,0,0,1-.72.069,1.59,1.59,0,0,1-.309-.034,1.59,1.59,0,0,0-.309-.034q-.137,0-1.3.034t-2.538.1q-1.646.069-3.7.069l.137.137a5.516,5.516,0,0,1,1.1.892q.617.617,1.132,1.235a11.362,11.362,0,0,1,.823,1.1q.309.48.24.48a4.365,4.365,0,0,0,.48,1.1A1.365,1.365,0,0,1,78.751-46.414ZM62.768-51.353a1.449,1.449,0,0,0,.686-.48h-.137a.337.337,0,0,0-.309.171A1.6,1.6,0,0,1,62.768-51.353Zm3.018-.48a2.237,2.237,0,0,0-.755.583q-.412.446-.686.789a4.512,4.512,0,0,1,.857-.72,1.847,1.847,0,0,1,.48-.206,2.374,2.374,0,0,0,.274-.069q.1-.034.309-.377Zm3.155.206a.562.562,0,0,0,.343-.206A.317.317,0,0,0,68.942-51.627Zm1.715.686a.061.061,0,0,0-.069.069h.069q0-.274.617-.514t.686-.446a1.78,1.78,0,0,0-.857.171A1.067,1.067,0,0,0,70.657-50.941Zm35.4-.823q-1.578,1.235-3.258,2.3A31.862,31.862,0,0,0,99.536-47.1q.823-.274,1.269-.446a2.832,2.832,0,0,0,.583-.274.3.3,0,0,0,.137-.24v-.274l.137.069a1.258,1.258,0,0,0,.789-.412q.446-.412.24-.206a5.568,5.568,0,0,1,1.029-.857,2.792,2.792,0,0,1,.686-.309,1.928,1.928,0,0,1,.446-.069.426.426,0,0,0,.309-.137,2.435,2.435,0,0,1,.549-.446,1.453,1.453,0,0,1,.412-.137,1.453,1.453,0,0,0,.412-.137,2.928,2.928,0,0,0,.617-.514h.137a.061.061,0,0,0,.069-.069q0-.206-.48-.206h-.823Zm2.607.823v.549q0,.206.069.206a2.387,2.387,0,0,1,1.063-.926q.514-.171.514-.583,0-.069-.137-.069a1.332,1.332,0,0,0-.72.343A3.464,3.464,0,0,1,108.659-50.941Zm2.95-.823a1.364,1.364,0,0,1-.343.446.932.932,0,0,0-.274.583,1.712,1.712,0,0,0,1.441-.617q.48-.617.343-.412ZM70.726-47.923q1.029-.823,1.406-1.166t.48-.446q.1-.1.1-.137a1.516,1.516,0,0,1,.412-.24,2.245,2.245,0,0,1,.549-.137q.686,0,.686.755a.309.309,0,0,1-.1.274,1.124,1.124,0,0,0-.171.137v.137a1.972,1.972,0,0,1-.514.823q-.514.617-1.132,1.235t-1.132,1.063q-.514.446-.514.377h.069a2.389,2.389,0,0,1,.48-.48,1.746,1.746,0,0,0,.412-.412.2.2,0,0,0,.137.069,1.382,1.382,0,0,0,.412-.274,8.837,8.837,0,0,0,.72-.652l.686-.686.309-.309q.206-.206.583-.549a1.064,1.064,0,0,1,.652-.343H75.6a.22.22,0,0,0,.206-.137,9.2,9.2,0,0,1-1.372-1.2q-.686-.72-.892-.72a6.473,6.473,0,0,0-.857.892q-.446.549-.446.343v.137h-.206q-.069,0-.171.171a.6.6,0,0,0-.1.24q-.549.48-1.269,1.2a4.922,4.922,0,0,0-.72.789.061.061,0,0,0,.069.069q.206-.206.412-.377T70.726-47.923Zm36.013-1.989a3.732,3.732,0,0,1-1.235.892,4.106,4.106,0,0,1-.617.206q-1.029.686-1.475.995a6.565,6.565,0,0,1-.583.377q-.137.069-.137.034t-.069-.034l-.069.069v.069L100.222-45.8a25.908,25.908,0,0,0-2.264,1.646H97.89l.069.069a2.164,2.164,0,0,0,.926-.309q.583-.309,1.132-.652a12.484,12.484,0,0,0,1.372-.96h.137a4.507,4.507,0,0,1,1.955-1.269q.926-.24.72-.24.274,0,.309-.137a.162.162,0,0,1,.171-.137h.137q0-.137.24-.309a3.83,3.83,0,0,1,.514-.309q.274-.137.446-.206t.034,0l.206-.206q.892-.617.995-.514t.1-.309v-.549q-.137.069-.309.137T106.739-49.912Zm-42.8,1.784a1.124,1.124,0,0,1-.171.137q-.1.069-.1.137a.061.061,0,0,0,.069.069.793.793,0,0,1,.309-.514,2.573,2.573,0,0,1,.48-.274,1.038,1.038,0,0,1,.343-.1h.034q.137-.069.137-.171a.233.233,0,0,1,.069-.171q.069,0,.069.034t.069.034q.137,0,.583-.446t.446-.652H66.2a8.7,8.7,0,0,1-1.132.96A8.7,8.7,0,0,0,63.935-48.129Zm36.836-1.441a.784.784,0,0,0-.446.171q-.24.171-.48.377t-.377.343q-.137.137-.069,0a1.475,1.475,0,0,0-.823.274,4.065,4.065,0,0,0-.755.652,5.973,5.973,0,0,0-.549.686,1.234,1.234,0,0,0-.206.377.121.121,0,0,0,.137.137,12.528,12.528,0,0,1,1.543-1.3,11.517,11.517,0,0,0,1.406-1.166q.069,0,.069.034t.069.034q.343,0,.789-.549t.446-.412l-.069-.069a.509.509,0,0,1-.343.24A.614.614,0,0,0,100.771-49.569ZM75.253-47.1a6.251,6.251,0,0,1-.583.514,2.035,2.035,0,0,0-.446.446,3.875,3.875,0,0,0,1.235-.617q.686-.48.549-.343a.625.625,0,0,1,.343-.343.14.14,0,0,1,.1.034.14.14,0,0,0,.1.034q.069,0,.069-.034t.069-.034a2.239,2.239,0,0,0-.24-.652,2.3,2.3,0,0,0-.377-.514.3.3,0,0,0,.034.137.3.3,0,0,1,.034.137.853.853,0,0,1-.274.617ZM58.035-48.2a.121.121,0,0,1-.137.137.121.121,0,0,0-.137.137q0,.206.137.206a1.211,1.211,0,0,1,.309-.412,1.5,1.5,0,0,0,.309-.343h-.137a.158.158,0,0,0-.171.1A.312.312,0,0,1,58.035-48.2Zm47.743,1.1a2.9,2.9,0,0,1-1.029.686l-.549.274q-1.3.823-2.229,1.509t-.72.48a3.027,3.027,0,0,1-.926.72q-.309.1-.171.1l-.069-.069a3.7,3.7,0,0,1-.755.583q-.412.24-.412.377a.061.061,0,0,0,.069.069,1.454,1.454,0,0,1,.549-.617,2.335,2.335,0,0,1,.617-.274.791.791,0,0,1,.377-.034q.1.034-.1.034.96-.549,1.2-.72l.24-.171h.1a5.483,5.483,0,0,0,.857-.274,5.557,5.557,0,0,1,2.126-1.235,17.188,17.188,0,0,0,2.4-1.029v-1.3a3.463,3.463,0,0,0-.823.412Q106.121-47.305,105.778-47.1Zm-40.06-.48q.069-.137.171-.1t.1-.034v-.069q-.412,0-.412.274h.069Zm2.332.48a.22.22,0,0,1,.137-.206.22.22,0,0,0,.137-.206.061.061,0,0,0-.069-.069q0,.137-.171.171t-.171.171Zm48.772,1.166a8.1,8.1,0,0,1-1.955,1.612q-.583.24-.583.514a.061.061,0,0,0,.069.069q.617-.48,1.269-.926a9.3,9.3,0,0,1,1.406-.789.664.664,0,0,1,.446.1l.24.24v-1.509a.793.793,0,0,0-.514.309A1.476,1.476,0,0,1,116.822-45.934ZM57.83-46.139v.274q0,.137.069.137l.171-.171a.329.329,0,0,0,.1-.24.061.061,0,0,0-.069-.069Q58.1-46.139,57.83-46.139Zm18.658.48-.617.617a2.15,2.15,0,0,1-.549.412,1.213,1.213,0,0,1-.549.343q-.343.343-.892.995t-.549.583a.061.061,0,0,0,.069.069q.274-.274.72-.755a12.315,12.315,0,0,1,.96-.926,7.365,7.365,0,0,1,1.029-.755,1.845,1.845,0,0,1,.926-.309.465.465,0,0,1,.343.137.83.83,0,0,0-.1-.48.682.682,0,0,1-.1-.412.735.735,0,0,0-.412.24A.861.861,0,0,1,76.488-45.659Zm-10.907.206q-1.1,1.1-2.161,1.989t-2.161,1.989a4.278,4.278,0,0,0,1.166-.652,1.986,1.986,0,0,0,.446-.514,1.085,1.085,0,0,0,.1-.24q0-.034.137.1a2.757,2.757,0,0,0,1.3-.789q.549-.583.412-.583h.206q0-.137.343-.309t.274-.171h.137q.069,0,.069-.1t.069-.1a.861.861,0,0,0,.412-.755.465.465,0,0,0-.137-.343.412.412,0,0,1-.274.274A.861.861,0,0,0,65.581-45.453Zm43.079.412h.069q.137,0,.446-.343t.309-.48a.061.061,0,0,0-.069-.069.534.534,0,0,1-.446.377Q108.659-45.522,108.659-45.042Zm-31.28,1.166a6,6,0,0,0-.96.892,6,6,0,0,1-.96.892.061.061,0,0,0,.069.069,1.072,1.072,0,0,0,.549-.24q.343-.24.755-.549l.823-.617a4.78,4.78,0,0,1,.686-.446.471.471,0,0,0-.309-.412.656.656,0,0,1-.377-.274,1.2,1.2,0,0,1-.171.343A.556.556,0,0,0,77.379-43.876ZM106.4-44.15a17.973,17.973,0,0,0-1.681.857q-.24.171-.24.274t-.309.309q-.309.206-1.955,1.029a1.885,1.885,0,0,0-.926.549q-.171.274-.24.274l-.069-.069a5.064,5.064,0,0,1-1.406.995q-.789.377-.789.583h.069a.607.607,0,0,1,.274-.171,1.148,1.148,0,0,0,.412-.309l.137.069q.137,0,.1-.069t.1-.206a11.789,11.789,0,0,1,1.1-.549q.343-.137.48-.206a1.34,1.34,0,0,1,.274-.1,4.284,4.284,0,0,0,.617-.274q.48-.24,1.406-.789t2.641-1.578q.274-.274.412-.274t.343-.755A1.382,1.382,0,0,0,106.4-44.15Zm8.094,3.087.514-.343a1.58,1.58,0,0,0,.446-.412.2.2,0,0,0,.137.069q-.069,0,.549-.377a2.1,2.1,0,0,1,.892-.377,2.459,2.459,0,0,0,.514.446q.1.034.1.377a1.169,1.169,0,0,1-.377.617,8.138,8.138,0,0,1-.789.755q-.412.343-.755.583l-.343.24h-.206a.061.061,0,0,0-.069.069.061.061,0,0,1-.069.069h-.069a.14.14,0,0,1-.034.1.14.14,0,0,0-.034.1h.069a5.571,5.571,0,0,1,1.338-.892,3.563,3.563,0,0,1,1.269-.48h.137v-3.327q0-.514-.069-.514,0,.069-.48.514t-1.063.96q-.583.514-1.063.96t-.549.514a3.319,3.319,0,0,1-.514.377q-.377.24-.377.377a.061.061,0,0,0,.069.069A2.3,2.3,0,0,1,114.49-41.063ZM109.14-43.67a.4.4,0,0,0-.274-.137q-.137,0-.171.343t-.034.755q0,.412.034.789t.034.514v.343q0,.274.137.343a1.1,1.1,0,0,1,.412-.446,1.5,1.5,0,0,0,.48-.514q-.274-.137-.514-.274a.445.445,0,0,1-.24-.412q0-.069.137-.206a.3.3,0,0,0-.034-.137.3.3,0,0,1-.034-.137q0-.206.171-.171t.171-.377l.069.069.069-.069-.069-.069q0-.069.137-.137t.137-.137a.76.76,0,0,0-.24.034.76.76,0,0,1-.24.034ZM66.2-43.052q0,.206-.514.686t-1.063,1.029q-.755.617-1.578,1.235-.137.137-.309.343t-.24.206q-.069,0-.069-.034t-.069-.034a2,2,0,0,0-.171.206.416.416,0,0,0-.1.206h.069a5.568,5.568,0,0,1,1.029-.857,3.752,3.752,0,0,1,.617-.309q.206-.069.24-.034t-.034-.1a2.632,2.632,0,0,0,1.063-.549,10.879,10.879,0,0,1,1.2-.755v-1.235ZM78.34-41.681q-.206.206-.549.514t-.72.617q-.377.309-.617.549t-.24.309a.061.061,0,0,0,.069.069l.069-.069q0-.069.137-.206a1.075,1.075,0,0,1,.274-.206h.206a7.206,7.206,0,0,1,1.063-.926,3.908,3.908,0,0,1,.549-.309.79.79,0,0,1,.274-.069q.1,0,.377-.274a.838.838,0,0,1-.206-.617.666.666,0,0,0-.412.274A2.248,2.248,0,0,1,78.34-41.681Zm26.753.48a15.616,15.616,0,0,1-1.715.995,3.769,3.769,0,0,1-.446.171h0q.034,0-.377.412-.823.617-.96.755l-.137.137-.171.069q-.171.069-1.063.549a.412.412,0,0,1-.274.274.442.442,0,0,0-.274.206q-.755,0-.857.377t-.24.377a3.393,3.393,0,0,1-.686.48q-.48.274-.48.412h.069q0,.069.137-.034a2.575,2.575,0,0,0,.274-.24,11.341,11.341,0,0,0,1.646-.857,3.709,3.709,0,0,0,.755-.514h.137a5.154,5.154,0,0,1,1.406-.926q.926-.446,1.269-.583a15.776,15.776,0,0,0,1.646-.72,1.528,1.528,0,0,0,.892-1.475q0-.137-.069-.137a.307.307,0,0,1-.206.171A1.341,1.341,0,0,0,105.092-41.2Zm-47.263.96v.48a.061.061,0,0,0,.069.069.4.4,0,0,1,.206-.343q.206-.137.206-.274v-.069a.4.4,0,0,1-.343.206q-.069,0-.069-.034T57.83-40.24Zm22.294,1.646a1.23,1.23,0,0,1,.206.617,1.342,1.342,0,0,1-.446.823q-.446.48-.96.96T78-35.335q-.412.377-.412.446.137,0,.137-.206a3.187,3.187,0,0,0,.995-.514,1.657,1.657,0,0,0,.583-.583l.137.069a2.06,2.06,0,0,0,.686-.377,4.949,4.949,0,0,1,.892-.514,8.151,8.151,0,0,0-.857-2.538q-.377-.48-.446-.549-.274.274-.892.789t-1.235,1.063q-.617.549-1.1,1.029t-.48.755h.069q0-.206.274-.377t.617-.377q.343-.206.617-.377a.93.93,0,0,0,.343-.309q.96-.96,1.338-.892a3.509,3.509,0,0,0,.514.069q.137,0,.137.069T80.123-38.594Zm16.6-1.1a1.811,1.811,0,0,0-.617.171,3.842,3.842,0,0,0-.823.48,4.115,4.115,0,0,0-.72.686,1.231,1.231,0,0,0-.309.789l.069.069q.069,0,.377-.377t.446-.377a1.178,1.178,0,0,0,.514-.309q.377-.309.789-.652t.72-.617q.309-.274.309-.206a.061.061,0,0,0-.069-.069.861.861,0,0,1-.343.206A.861.861,0,0,0,96.724-39.691Zm-31.143.48L64-37.633h-.137q-.137,0-.48.309t-.755.72q-.412.412-.755.789a3.136,3.136,0,0,0-.412.514q.549-.412,1.372-.926t1.612-1.063a11.884,11.884,0,0,0,1.338-1.063,1.4,1.4,0,0,0,.549-.926.559.559,0,0,0-.137-.412.412.412,0,0,1-.274.274A.861.861,0,0,0,65.581-39.211Zm43.147.686v.48q0,.206.137.206a1.518,1.518,0,0,1,.48-.617q.343-.274.343-.412a.061.061,0,0,1-.069-.069A1.8,1.8,0,0,1,108.728-38.525Zm5.968,2.264-.137.137.069.069a.565.565,0,0,0,.412-.24q.206-.24.274-.24h.137a3.868,3.868,0,0,0,1.132-.72,2.091,2.091,0,0,1,1.132-.514v-.823a.543.543,0,0,0-.069-.343q-.755.755-1.475,1.406T114.7-36.261ZM57.83-38.045v.823a.543.543,0,0,0,.069.343,5.837,5.837,0,0,1,1.063-1.063q.652-.514.652-.72v-.069q-.274.206-.686.48a1.475,1.475,0,0,1-.823.274A.4.4,0,0,1,57.83-38.045Zm45.617.686q-.412.274-.857.549a3.691,3.691,0,0,0-.652.48H101.8a.866.866,0,0,0-.583.309l-.377.377H100.7a.162.162,0,0,0-.171.137q-.034.137-.309.137a1,1,0,0,0-.514.206,5.712,5.712,0,0,0-.549.412q-.24.206-.343.309l.034-.034a1.142,1.142,0,0,1-.652.652,2.161,2.161,0,0,0-.514.24.931.931,0,0,0-.309.137q-.24.137-.549.343a5.712,5.712,0,0,0-.549.412q-.24.206-.24.274-.206.137-.206.206H95.9a.061.061,0,0,1,.069-.069h.137a1.032,1.032,0,0,1,.446-.274.278.278,0,0,0,.24-.274.2.2,0,0,0,.137.069,2.01,2.01,0,0,0,.48-.24q.412-.24.274-.309a.2.2,0,0,0,.137.069,1.488,1.488,0,0,0,1.2-.446q.377-.446.446-.514.96-.549,2.161-1.2a4.624,4.624,0,0,1,2.161-.652,3.932,3.932,0,0,1,.343-.926,3.933,3.933,0,0,0,.343-.926,1.215,1.215,0,0,0-.549.24A2.476,2.476,0,0,1,103.446-37.359ZM57.83-34.409v.96l1.063-1.063,1.269-1.269q.617-.617,1.1-1.063l.48-.446-.069-.069q-.96.755-1.886,1.543A14.574,14.574,0,0,1,57.83-34.409Zm7.683-1.441q-.617.549-1.2,1.063t-1.2,1.063v.069l-.069.137h.069a2.576,2.576,0,0,1,.274-.24A2.575,2.575,0,0,0,63.66-34a.2.2,0,0,0,.137.069.761.761,0,0,0,.617-.446q.274-.446.274-.24v-.069a1.862,1.862,0,0,0,.755-.446.962.962,0,0,1,.755-.24h.069v-1.1q-.343.069-.412.274A.625.625,0,0,1,65.512-35.85Zm11.73,4.527-.069.137a7.65,7.65,0,0,0,1.166-.96q.069,0,.069.034t.069.034q-.069,0,.137-.206.137-.137.48-.412a1.052,1.052,0,0,1,.48-.274h.137q.617-.617.857-.823a1.337,1.337,0,0,1,.343-.24q.1-.034.1,0t.206-.171a.2.2,0,0,0,.137.069l.069-.069q0-.069.034-.069t.034-.137a.2.2,0,0,0,.137.069.2.2,0,0,0,.137-.069.465.465,0,0,1,.343-.137,4.864,4.864,0,0,1-.206-.617.666.666,0,0,0-.274-.412q-1.1,1.1-2.229,2.092A24.088,24.088,0,0,0,77.242-31.322Zm38.894-2.95a.121.121,0,0,0-.137.137.061.061,0,0,0,.069.069l.343-.343.137.069a1.631,1.631,0,0,0,.446-.274,1.871,1.871,0,0,1,.72-.343v-.48q0-.137-.069-.137a7.028,7.028,0,0,1-.755.652A7.028,7.028,0,0,0,116.136-34.272Zm-22.911-.137a.713.713,0,0,0,.48-.274,2.726,2.726,0,0,1,.343-.412.76.76,0,0,1-.24-.034.76.76,0,0,0-.24-.034h-.137v.206A.742.742,0,0,1,93.225-34.409Zm-21.471.343q0-.137.069-.171t.069-.171a.061.061,0,0,0-.069-.069q-.206.206-.206.274T71.755-34.066Zm30.182.274a2.269,2.269,0,0,0-1.2.617q-.24.343-.171.274a3.356,3.356,0,0,1-.343.206,1.075,1.075,0,0,0-.274.206,3.429,3.429,0,0,0,1.029-.446,1.985,1.985,0,0,1,1.1-.309,1.784,1.784,0,0,1,.549.069q.274-.617.48-1.235A4.1,4.1,0,0,0,101.937-33.792Zm6.791-.069v1.3q0,.274.137.274v-.069a.922.922,0,0,1,.24-.514,4.371,4.371,0,0,1,.549-.583q.309-.274.583-.48t.274-.274q0-.069-.137-.069a1.105,1.105,0,0,0-.48.24,1.287,1.287,0,0,1-.755.24A.955.955,0,0,1,108.728-33.861Zm-42.941.686a5.087,5.087,0,0,0-1.509,1.338q-.823.995-1.372,1.543.412-.206.995-.549t1.1-.686a4.854,4.854,0,0,0,.892-.755,1.23,1.23,0,0,0,.377-.823v-.412Q66.13-33.518,65.787-33.175Zm51.447.343a9.246,9.246,0,0,1-.823.72q-.48.377-.926.72t-.755.617q-.309.274-.309.412h.069q0-.137.137-.1a.2.2,0,0,0,.206-.034,8.447,8.447,0,0,0,1.475-.823,4.318,4.318,0,0,1,1.406-.617v-.823a.543.543,0,0,0-.069-.343q-.069.206-.171.206A.553.553,0,0,0,117.234-32.832Zm-44.313.343a.674.674,0,0,0-.617.343.246.246,0,0,1,.137.24q0,.171.206.171a1.712,1.712,0,0,1,.377-.583,7.115,7.115,0,0,0,.514-.583A1.23,1.23,0,0,0,72.921-32.489ZM57.83-31.254v.617q0,.206.069.206.274-.274.617-.583t.686-.652l.755-.755-.069-.069-.96.686A4.111,4.111,0,0,1,57.83-31.254Zm34.71-.686a.326.326,0,0,0-.1.309.326.326,0,0,1-.1.309.838.838,0,0,0,.549-.24,1.11,1.11,0,0,0,.343-.446h-.069a.28.28,0,0,0-.206.069.279.279,0,0,1-.206.069A.279.279,0,0,1,92.539-31.94Zm-17.355.549a.121.121,0,0,0-.137.137q0,.137-.274.137,0,.137-.24.309a3.124,3.124,0,0,1-.549.309q-.309.137-.583.24l-.274.1a.462.462,0,0,1,.206.412.439.439,0,0,0,.274.412,1.436,1.436,0,0,1,.343-.583q.274-.309.514-.583a1.914,1.914,0,0,1,.412-.377q.171-.1.034.034a1.939,1.939,0,0,1,.514-.48q.24-.137.24-.274,0-.069-.034-.069t-.034-.069q-.069.206-.171.206A.376.376,0,0,0,75.184-31.391Zm7.614.549a.433.433,0,0,1,.446-.171.526.526,0,0,0,.446-.1q-.274-.069-.206-.274t-.206-.206a.968.968,0,0,1-.309.309q-.24.171-.24.309A.2.2,0,0,0,82.8-30.842Zm18.658-.274q-.343,0-.274.034t-.069.171h-.137a.742.742,0,0,0-.377.171q-.24.171-.514.377a4.208,4.208,0,0,0-.446.377l-.171.171H99.33q-.137,0-.1.1t-.1.1l-.137-.069a.312.312,0,0,0-.171.171.313.313,0,0,1-.171.171h-.137a4.477,4.477,0,0,1-.48.412,2.983,2.983,0,0,1-.617.412.2.2,0,0,0-.137-.069.14.14,0,0,1-.034.1.14.14,0,0,0-.034.1l-.069.069A.2.2,0,0,0,97-28.373a15.551,15.551,0,0,1-1.406,1.3,1.223,1.223,0,0,1-.514.274q-.137,0-.171-.069t-.377.274a1.722,1.722,0,0,0-.549.514q-.137.24-.274.24l-.137-.069a2.51,2.51,0,0,0-.48.412,2.249,2.249,0,0,1-.274.343l-.137-.069q-.069.069-.514.48t-.446.48a1.945,1.945,0,0,0,.823-.309q.549-.309,1.1-.686t.995-.72a5.069,5.069,0,0,1,.583-.412,3.356,3.356,0,0,0,.343-.206q.274-.274.412-.274h.137q.137-.137.069-.171t.069-.034h.137A3.776,3.776,0,0,1,97.924-28.1q.72-.206.72-.274v-.069a13.2,13.2,0,0,1,1.715-1.063q.412-.171.446-.1a.382.382,0,0,1,.034.171q0,.1.412-.24v-.069q0-.274.206-.274a.14.14,0,0,0-.034-.1.14.14,0,0,1-.034-.1.2.2,0,0,1,.069-.137q.137-.137.206-.137a.3.3,0,0,0-.034-.137.3.3,0,0,1-.034-.137q0-.069.137-.137t.137-.48v-.137a1.662,1.662,0,0,1-.24.206A.518.518,0,0,0,101.457-31.117Zm7.408.96a.307.307,0,0,1,.206-.171.162.162,0,0,0,.137-.171,1.105,1.105,0,0,1-.48-.137.467.467,0,0,1,.034.309Q108.728-30.156,108.865-30.156Zm-25.106.617q-.96.96-1.989,1.886A22.117,22.117,0,0,0,79.849-25.7a3.59,3.59,0,0,0,.995-.48,7.558,7.558,0,0,0,.892-.686q.377-.343.583-.549l.137-.137a4.281,4.281,0,0,0,.995-.686,1.432,1.432,0,0,1,.995-.412h.206q-.137-.274-.343-.823t-.137-.549a.372.372,0,0,0-.274.171A.518.518,0,0,0,83.759-29.539Zm32.652.617q-.137,0-.446.274t-.24.274a2.3,2.3,0,0,1-.823.617q-.274.069-.274.206a.061.061,0,0,0,.069.069,3.325,3.325,0,0,0,.48-.412.2.2,0,0,0,.137.069,2.432,2.432,0,0,0,.48-.171,3.841,3.841,0,0,0,.823-.48,7.028,7.028,0,0,0,.755-.652.988.988,0,0,0,.343-.686,2.338,2.338,0,0,0-.686.446A2.915,2.915,0,0,1,116.411-28.922ZM62.425-26.315v.069l-.069.137h.069a1.67,1.67,0,0,1,.652-.583q.514-.309.652-.377a5.145,5.145,0,0,1,1.2-.926,13.155,13.155,0,0,1,1.269-.583v-.755a.543.543,0,0,0-.069-.343q-.96.892-1.852,1.715T62.425-26.315ZM57.83-28.1v.617q0,.206.069.206a3.042,3.042,0,0,1,.995-1.132q.583-.377.583-.652v-.069A7.654,7.654,0,0,1,57.83-28.1Zm33.612-.069a1.245,1.245,0,0,1,.274-.309,1.246,1.246,0,0,0,.274-.309h-.137q-.48,0-.48.412A.279.279,0,0,0,91.442-28.167Zm17.286.48a.467.467,0,0,1,.034.309q-.034.171.1.171,0-.206.412-.412t.412-.48a.2.2,0,0,0-.069-.137A4.272,4.272,0,0,1,108.728-27.687Zm-34.5.343v.069a.3.3,0,0,0,.034.137.3.3,0,0,1,.034.137.615.615,0,0,0,.309-.1,1.6,1.6,0,0,0,.309-.24l-.069-.137q0-.069.206-.206t.206-.206c0-.046-.069-.069-.069-.069a3.431,3.431,0,0,0-.48.343A1.018,1.018,0,0,1,74.224-27.344Zm-13.239.137q0,.137-.24.309t-.514.343q-.274.171-.48.274t-.069.1a1.577,1.577,0,0,0-1.166.412,1.471,1.471,0,0,0-.274.343.478.478,0,0,1-.206-.034.478.478,0,0,0-.206-.034v1.784q1.1-1.1,1.989-1.921L61.191-27a3.739,3.739,0,0,0,.617-.686.061.061,0,0,1-.069-.069A2.136,2.136,0,0,1,60.985-27.207ZM99.4-27a7.451,7.451,0,0,0-1.921,1.372q-.549.617-.549.274v.069a4.64,4.64,0,0,0-1.166.583q-.549.377-.926.686t-.549.48l-.034.034a.473.473,0,0,0-.309.171l-.309.309H93.5a1.086,1.086,0,0,0-.926.617q-.377.617-.377.48h-.206a1.578,1.578,0,0,0-.823.48q-.549.48-1.132,1.029t-1.063,1.1q-.48.549-.549.617.343,0,.377-.137t.1-.137h.206q0-.343.549-.617a2.681,2.681,0,0,1,.549-.206,4.478,4.478,0,0,1,.48-.412A1.594,1.594,0,0,1,91-20.45q.171-.1.1-.034a.2.2,0,0,0,.137.069l.069-.069q0-.069.034-.069t.034-.137a.2.2,0,0,0,.137.069,1.6,1.6,0,0,0,.446-.309q.377-.309.823-.686t.857-.686a1.251,1.251,0,0,1,.686-.309.312.312,0,0,0,.171-.171.43.43,0,0,1,.1-.171l.137.069q.137,0,.1-.069t.1-.206a.2.2,0,0,0,.137.069,1.863,1.863,0,0,0,1.475-.583q.514-.583.377-.514l-.069-.069q0-.069.1-.034t.1-.034v-.069h.206q.069,0,.069-.1t.069-.1h.206a.061.061,0,0,1-.069-.069l.069-.069a.2.2,0,0,0,.137.069l.069-.069a.061.061,0,0,1-.069-.069h.137a.14.14,0,0,0,.1-.034.14.14,0,0,1,.1-.034.946.946,0,0,1,.686-.206q.343,0,.446.171a.289.289,0,0,0,.24.171.2.2,0,0,0,.069-.137q.069,0,.24-.343a4.8,4.8,0,0,0,.309-.823q.137-.48.24-.892a2.814,2.814,0,0,0,.1-.617q0-.137-.069-.137a1.362,1.362,0,0,1-.48.412A4.486,4.486,0,0,0,99.4-27ZM83.9-25.9q-1.1,1.1-2.264,2.126a23.324,23.324,0,0,0-2.126,2.126l-.069.137a.061.061,0,0,0,.069.069,2.434,2.434,0,0,1,.549-.446.8.8,0,0,0,.343-.377l.137.069a.121.121,0,0,0,.137-.137q0-.137.206-.137a1.859,1.859,0,0,0,.48-.309,5.943,5.943,0,0,0,.549-.446,6.439,6.439,0,0,1,.892-.652q.686-.446,1.372-.857t1.235-.72q.549-.309.549-.24,0-.686-.274-.823t-.274-.274a.14.14,0,0,1,.034-.1.14.14,0,0,0,.034-.1q-.274.137-.206-.1t-.069-.24q-.137,0-.617.617A10.328,10.328,0,0,1,83.9-25.9Zm33.132-.617a4.019,4.019,0,0,1-.48.549h-.137a.562.562,0,0,0-.343.206q-.206.206-.412.446t-.343.412q-.137.171-.137.034a.061.061,0,0,0,.069.069,6.89,6.89,0,0,1,.857-.686,1.971,1.971,0,0,1,1.132-.412.28.28,0,0,1,.206.069.279.279,0,0,0,.206.069h.069v-.96a.543.543,0,0,0-.069-.343,3.742,3.742,0,0,1-.309.274A3.741,3.741,0,0,0,117.028-26.521Zm-53.094,2.2q-.549.549-1.1,1.132t-1.166,1.2q1.166-.823,2.229-1.646a13.888,13.888,0,0,1,2.3-1.441v-.96a.543.543,0,0,0-.069-.343q-.549.549-1.1,1.029T63.935-24.326Zm26.478-1.852q0,.96-.137.892t-.137.137q0,.274.137.274a1.576,1.576,0,0,1,.549-.549,1.577,1.577,0,0,0,.549-.549.4.4,0,0,1-.274.069.465.465,0,0,1-.343-.137.4.4,0,0,0-.274-.137Zm26.821,2.058a3.231,3.231,0,0,1-.309.446q-.24.309-.377.309a.2.2,0,0,0-.137-.069,2.372,2.372,0,0,1-1.1,1.235,7.037,7.037,0,0,0-.96.617,2.788,2.788,0,0,1-.617.686,2.15,2.15,0,0,1-.549.412,1.414,1.414,0,0,0,.549-.274,2.25,2.25,0,0,0,.343-.274h.206q1.1-1.1,1.372-1.1h.206a3.025,3.025,0,0,1,.686-.309,5.552,5.552,0,0,0,.583-.206,1.087,1.087,0,0,0,.412-.309,1.077,1.077,0,0,0,.171-.686v-.549q0-.206-.069-.206a.313.313,0,0,1-.171.171A1.883,1.883,0,0,0,117.234-24.12ZM84.651-22.131a1.6,1.6,0,0,1-.309.24.289.289,0,0,0-.171.24.061.061,0,0,0,.069.069,4.284,4.284,0,0,1,1.955-1.543q.789-.171.377-.171h.069q.137-.069.137-.137t.137-.069a3.17,3.17,0,0,1-.1-.377.6.6,0,0,0-.171-.309q-.48.549-.995,1.063ZM75.665-23.5q.137,0,.171.171t.171.171a1.8,1.8,0,0,1,.206-.309.59.59,0,0,0,.137-.377l-.069-.069a.249.249,0,0,1-.309.171Q75.733-23.777,75.665-23.5Zm16.875,4.8q-.069,0-.069.137a1.728,1.728,0,0,0,1.063-.617q.377-.48.377-.412l.137.069a.833.833,0,0,0,.412-.206l.549-.412a4.208,4.208,0,0,0,.446-.377l.171-.171a.2.2,0,0,0,.137.069q.137,0,.1-.1t.1-.1h.137a21.9,21.9,0,0,0,2.264-1.2,1.555,1.555,0,0,0,.686-1.406.279.279,0,0,0-.069-.206Q97.341-22.4,95.729-21.2T92.539-18.7ZM62.768-19.867q0,.069-.137.206a3.816,3.816,0,0,0,1.063-.686,1.106,1.106,0,0,0,.274-.446q.034-.171.1-.206a2.682,2.682,0,0,1,.617-.034q.137,0,.1-.034t.034-.1a1.913,1.913,0,0,1,.48-.274h.206a.914.914,0,0,1,.309-.206,2.1,2.1,0,0,0,.377-.206v-.823a.543.543,0,0,0-.069-.343q-.823.823-1.681,1.578T62.768-19.867Zm14.405-2.058h-.446a.51.51,0,0,1-.377-.137q.137.343.274.652a3.092,3.092,0,0,1,.206.652q.206,0,.549-.412t.48-.549A.7.7,0,0,1,78.2-22.3q.343-.24.343-.446v-.069a6.241,6.241,0,0,1-.686.48Zm31.554.069v.617q0,.274.137.274a3.326,3.326,0,0,1,.755-.789q.549-.446.549-.72a.061.061,0,0,0-.069-.069,5.153,5.153,0,0,1-.549.48A1.365,1.365,0,0,1,108.728-21.856Zm-50.35.412q-.549,0-.549.137t0,.549v.549q0,.137.069.137.343-.343.652-.72t.652-.72q.343-.343.686-.755a.061.061,0,0,1-.069-.069,2.687,2.687,0,0,1-.686.514Zm22.843.412q.069,0-.137.206h-.137q-.137,0-.24.206t-.171.206a.2.2,0,0,0-.137-.069,13.7,13.7,0,0,1-1.2,1.063,7.766,7.766,0,0,1-1.338.857,1.587,1.587,0,0,0,.48.96q0-.274.137-.309t.137-.1v-.206q1.441-1.441,2.126-2.058t.96-.823q.274-.206.24-.206t-.034-.206v-.069a.885.885,0,0,1-.343.309A1.305,1.305,0,0,0,81.221-21.033Zm33.818,2.264q-.412.274-.892.652t-.857.72q-.377.343-.617.549t-.24.137a.061.061,0,0,0,.069.069q.755-.755,1.1-1.029a2.2,2.2,0,0,1,.446-.309q.1-.034.1.069t.137.034a4.86,4.86,0,0,1,1.338-1.063,5.682,5.682,0,0,0,1.132-.652,1.443,1.443,0,0,0,.343-.034,1.443,1.443,0,0,1,.343-.034.4.4,0,0,1,.274.069v-1.372q0-.206-.069-.206a10.508,10.508,0,0,1-1.2,1.269A17.866,17.866,0,0,1,115.039-18.769Zm-31.074.96-.206.206-.137.137a7.334,7.334,0,0,0,.72-.652q.446-.446.892-.857t.892-.755a1.351,1.351,0,0,1,.652-.343q.069,0,.377-.343a1.373,1.373,0,0,0,.309-.412q0-.069-.137-.206-.823.755-1.715,1.543A16.3,16.3,0,0,0,83.965-17.809Zm7.683,2.4-.069.137q.549-.343,1.235-.857t1.406-.995a10.464,10.464,0,0,1,1.475-.823,3.357,3.357,0,0,1,1.372-.343q.137-.206.377-.652a1.929,1.929,0,0,0,.24-.926V-20q-1.509,1.166-3.018,2.3T91.648-15.408ZM65.307-18.495a.061.061,0,0,1-.069.069.2.2,0,0,0-.137-.069q-.343.343-.823.789l-.926.857q-.446.412-.755.72t-.309.377a.2.2,0,0,1,.069.137.8.8,0,0,1-.206.137.22.22,0,0,0-.137.206q.892-.755,1.646-1.372.686-.549,1.269-.995a1.767,1.767,0,0,1,.857-.446.564.564,0,0,1,.171.034.76.76,0,0,0,.24.034v-1.166q0-.206-.069-.206a4.8,4.8,0,0,1-.446.514Zm43.559.069a.061.061,0,0,1,.069-.069.182.182,0,0,0-.206-.206Q108.728-18.426,108.865-18.426Zm7.546,1.235a3.17,3.17,0,0,1-.72.549q-.377.206-.377.48a.061.061,0,0,0,.069.069,1.919,1.919,0,0,1,1.132-.72,5.141,5.141,0,0,1,1.063-.171h.137v-.96a.543.543,0,0,0-.069-.343q-.274.274-.583.549T116.411-17.192ZM57.9-16.986a1.058,1.058,0,0,1,.274-.309q.206-.171.206-.309l-.069-.069a1.306,1.306,0,0,1-.343.24q-.206.1-.206.24Q57.761-17.123,57.9-16.986Zm22.911,0a10.346,10.346,0,0,0-1.235.72q-.549.377-.549.514a2.435,2.435,0,0,0,.377.857q.377.652.72.72A2.16,2.16,0,0,1,79.918-15a1.328,1.328,0,0,1,.206-.892.4.4,0,0,1,.274-.137v-.206a.233.233,0,0,1,.171-.069q.1,0,.171-.137a.2.2,0,0,1-.069-.137,2.341,2.341,0,0,1,.48-.48q.343-.274.343-.412l-.069-.069q-.137.137-.343.309T80.809-16.986Zm5.694-.137a1.151,1.151,0,0,0-.686.377q-.412.377-.755.755a3.833,3.833,0,0,0-.48.617q-.137.24.069.034-.137.137-.343.377a.687.687,0,0,0-.206.377.061.061,0,0,0,.069.069l.274-.274a1.075,1.075,0,0,0,.206-.274l.137.069a1.178,1.178,0,0,0,.652-.274,4.408,4.408,0,0,0,.686-.617q.309-.343.514-.617l.206-.274a.449.449,0,0,1-.206-.206Q86.571-17.123,86.5-17.123Zm-26.41,1.166a.976.976,0,0,0-.171.206.537.537,0,0,1-.1.137h-.206a1.842,1.842,0,0,0-.652.377,1.871,1.871,0,0,1-1.132.377q0,.892,0,1.3t1.372.412a1.52,1.52,0,0,1-.069-.48,2.283,2.283,0,0,1,.686-1.612q.686-.72.755-.789a.692.692,0,0,1,.309-.274q.171-.069.171-.206,0-.069-.034-.069t-.034-.069a1.361,1.361,0,0,1-.48.412A1.6,1.6,0,0,0,60.093-15.957Zm5.625.412h.069a.271.271,0,0,0,.171-.034.271.271,0,0,1,.171-.034H66.2v-.412a.061.061,0,0,0-.069-.069q0,.274-.171.309A.32.32,0,0,0,65.718-15.545Zm29.7.343h.137a.271.271,0,0,1,.171.034.271.271,0,0,0,.171.034h.137v-.137a.329.329,0,0,1,.1-.24.329.329,0,0,0,.1-.24q0-.069-.137-.206a.8.8,0,0,1-.343.377A.8.8,0,0,0,95.42-15.2Zm21.745,1.029v.069a.3.3,0,0,0,.034.137.478.478,0,0,1,.034.206.532.532,0,0,1-.1.377.916.916,0,0,0-.171.24q.823,0,.789-.514t-.034-1.063q0-.137-.069-.137a2.248,2.248,0,0,1-.274.343A.861.861,0,0,0,117.165-14.173Zm-30.045.549q0-.206-.137-.137a.224.224,0,0,1-.274-.069q0-.549-.686-.686a3.356,3.356,0,0,1-.652.617,6.056,6.056,0,0,0-.72.617q.343,0,.755.034t.755.034a1.927,1.927,0,0,0,.377-.034,1.59,1.59,0,0,1,.309-.034.3.3,0,0,1,.137.034.478.478,0,0,0,.206.034q.206,0,.206-.343a.2.2,0,0,0-.137-.069Zm26.341.343q.617,0,1.2.034t.926.034a.4.4,0,0,0,.274-.137q-.343,0-.412-.171a1.007,1.007,0,0,1-.069-.377q0-.206,0-.377t-.137-.171a2.089,2.089,0,0,1-.892.617A2.462,2.462,0,0,0,113.461-13.282Zm-31.28-.686q0-.137.069-.137t.069-.137q-.137-.137-.206-.137a1.6,1.6,0,0,1-.412.274,1.053,1.053,0,0,1-.412.137h-.48q-.274,0-.274.137a4.633,4.633,0,0,1,.926.377,1.71,1.71,0,0,0,.789.24.121.121,0,0,0,.137-.137.427.427,0,0,1-.137-.309A.681.681,0,0,0,82.181-13.968Zm9.123.686h.96q0-.48-.206-.549a.656.656,0,0,1-.377.274A.656.656,0,0,0,91.3-13.282Zm19.824-.549a2.5,2.5,0,0,1-.48.1.828.828,0,0,0-.686.446h.96a.714.714,0,0,0,.412-.069Q111.129-13.419,111.129-13.83Zm-16.6.549h.686a.564.564,0,0,1,.034-.171.564.564,0,0,0,.034-.171q0-.137-.069-.137a1.306,1.306,0,0,1-.343.24A1.306,1.306,0,0,0,94.529-13.282Zm-29.839,0a.478.478,0,0,1,.206.034.478.478,0,0,0,.206.034.121.121,0,0,0,.137-.137.279.279,0,0,0-.206-.069A.465.465,0,0,0,64.689-13.282Z" transform="translate(-0.207 102.703)" fill="#00d11c"/>
      <path id="Path_109" data-name="Path 109" d="M1.794-9.914v6.737h1.7a3.2,3.2,0,0,0,2.455-.913,3.545,3.545,0,0,0,.845-2.5,3.757,3.757,0,0,0-.291-1.5,3.1,3.1,0,0,0-.834-1.17A3.566,3.566,0,0,0,3.3-9.914Zm-.805-.794H3.352a5.652,5.652,0,0,1,1.61.188,3.252,3.252,0,0,1,1.2.628,4.219,4.219,0,0,1,1.5,3.323,4.461,4.461,0,0,1-.434,2.01A3.494,3.494,0,0,1,4.86-2.549a8.31,8.31,0,0,1-1.873.154h-2ZM15.313-2.395H14.5v-6.28h.759v.725a1.729,1.729,0,0,1,1.473-.816v.874a1.582,1.582,0,0,0-1.09.454,1.922,1.922,0,0,0-.325,1.253ZM29.438-5.284H23.769a2.2,2.2,0,0,0,.183.925,2.373,2.373,0,0,0,.565.736,2.346,2.346,0,0,0,1.661.634,2.286,2.286,0,0,0,1.3-.388,2.548,2.548,0,0,0,.851-1h.913a3.407,3.407,0,0,1-1.2,1.6,3.062,3.062,0,0,1-1.833.565,3.115,3.115,0,0,1-2.324-.968,3.25,3.25,0,0,1-.942-2.355,3.212,3.212,0,0,1,.919-2.378,3.265,3.265,0,0,1,2.381-.928,2.994,2.994,0,0,1,2.3.982,3.559,3.559,0,0,1,.9,2.523Zm-.891-.679A2.7,2.7,0,0,0,27.7-7.539a2.4,2.4,0,0,0-1.581-.548,2.16,2.16,0,0,0-1.581.594,2.5,2.5,0,0,0-.742,1.53Zm12.966.388a2.444,2.444,0,0,0-.725-1.741,2.2,2.2,0,0,0-1.633-.748,2.248,2.248,0,0,0-1.718.748,2.608,2.608,0,0,0-.714,1.844,2.435,2.435,0,0,0,.682,1.764,2.327,2.327,0,0,0,1.727.731,2.2,2.2,0,0,0,1.673-.765A2.646,2.646,0,0,0,41.513-5.575Zm0,2.187a2.758,2.758,0,0,1-1.028.851,3.16,3.16,0,0,1-1.376.308A3.022,3.022,0,0,1,36.8-3.171a3.242,3.242,0,0,1-.913-2.335,3.207,3.207,0,0,1,.948-2.358,3.168,3.168,0,0,1,2.341-.948,2.926,2.926,0,0,1,1.322.294,2.878,2.878,0,0,1,1.013.848v-1H42.3v6.28h-.788Zm8.079.993v-8.313h1.2L53.674-3.48l2.866-7.228h1.2v8.313h-.782V-9.737L54.039-2.395H53.3L50.38-9.737v7.342ZM65.743-9.412h-.805v-1.3h.805Zm-.805,7.017v-6.28h.805v6.28ZM82.02-4.77h.8a1.757,1.757,0,0,0,.414,1.213,1.422,1.422,0,0,0,1.1.471,1.464,1.464,0,0,0,1.145-.44,1.761,1.761,0,0,0,.431-1.245q.011-1.1-1.753-1.707l-.2-.069a2.866,2.866,0,0,1-1.327-.8A1.927,1.927,0,0,1,82.243-8.6a2.225,2.225,0,0,1,.622-1.627,2.143,2.143,0,0,1,1.6-.634,1.962,1.962,0,0,1,1.484.577,2.361,2.361,0,0,1,.611,1.621h-.771a1.421,1.421,0,0,0-.123-.577,1.7,1.7,0,0,0-.288-.462,1.2,1.2,0,0,0-.913-.377,1.294,1.294,0,0,0-1.008.4,1.432,1.432,0,0,0-.391,1.028,1.163,1.163,0,0,0,.491.993,4.394,4.394,0,0,0,1,.434L85.212-7a2.358,2.358,0,0,1,1.17.805,2.074,2.074,0,0,1,.354,1.279,2.874,2.874,0,0,1-.611,1.907,2.259,2.259,0,0,1-1.8.782,2.15,2.15,0,0,1-1.661-.7A2.663,2.663,0,0,1,82.02-4.77Zm12.1-.771a2.6,2.6,0,0,0,.691,1.816,2.215,2.215,0,0,0,1.718.736,2.194,2.194,0,0,0,1.724-.765,2.629,2.629,0,0,0,.657-1.8,2.506,2.506,0,0,0-.682-1.81A2.371,2.371,0,0,0,96.459-8.1a2.161,2.161,0,0,0-1.644.748A2.613,2.613,0,0,0,94.124-5.541Zm-.845.011a3.292,3.292,0,0,1,.945-2.358,3,3,0,0,1,2.247-.988,3.173,3.173,0,0,1,2.315.959,3.151,3.151,0,0,1,.973,2.307,3.311,3.311,0,0,1-.948,2.4,3.04,3.04,0,0,1-2.278.993,3.047,3.047,0,0,1-2.307-.971A3.254,3.254,0,0,1,93.279-5.529Zm14.393,3.134h-.782V-7.973h-.839v-.7h.805v-.171a2,2,0,0,1,.491-1.462,2.125,2.125,0,0,1,1.564-.5h.074v.725a1.509,1.509,0,0,0-1,.268,1.229,1.229,0,0,0-.325.965v.171h1.325v.7h-1.313Zm8.49,0V-7.864h-1.193v-.811h1.193v-2.032h.805v2.032h1.193v.811h-1.193v5.469Z" transform="translate(0.462 108.848)" fill="#fff"/>
    </g>
  </g>
</svg>
